<svg width="487" height="54" viewBox="0 0 487 54" fill="none" xmlns="http://www.w3.org/2000/svg">
<ellipse cx="24.1957" cy="12.5" rx="12.87" ry="12.5" fill="#326FBB"/>
<line x1="41.1841" y1="12.5" x2="207.979" y2="12.5" stroke="#326FBB"/>
<path d="M26.7116 16.32V17H22.8716V16.32H24.4066V11.435C24.4066 11.2883 24.4116 11.14 24.4216 10.99L23.1466 12.085C23.1032 12.1217 23.0599 12.145 23.0166 12.155C22.9732 12.1617 22.9332 12.1617 22.8966 12.155C22.8599 12.1483 22.8249 12.135 22.7916 12.115C22.7616 12.095 22.7382 12.0733 22.7216 12.05L22.4416 11.665L24.5766 9.82H25.3016V16.32H26.7116Z" fill="white"/>
<ellipse cx="224.967" cy="12.5" rx="12.87" ry="12.5" fill="#326FBB"/>
<line x1="241.956" y1="12.5" x2="408.75" y2="12.5" stroke="#CCCCCC"/>
<path d="M227.328 16.155C227.425 16.155 227.501 16.1833 227.558 16.24C227.615 16.2967 227.643 16.37 227.643 16.46V17H222.863V16.695C222.863 16.6317 222.876 16.5667 222.903 16.5C222.93 16.4333 222.971 16.3717 223.028 16.315L225.323 14.01C225.513 13.8167 225.686 13.6317 225.843 13.455C226 13.275 226.133 13.095 226.243 12.915C226.353 12.735 226.438 12.5533 226.498 12.37C226.558 12.1833 226.588 11.985 226.588 11.775C226.588 11.565 226.555 11.3817 226.488 11.225C226.421 11.065 226.33 10.9333 226.213 10.83C226.1 10.7267 225.965 10.65 225.808 10.6C225.651 10.5467 225.483 10.52 225.303 10.52C225.12 10.52 224.951 10.5467 224.798 10.6C224.645 10.6533 224.508 10.7283 224.388 10.825C224.271 10.9183 224.173 11.03 224.093 11.16C224.013 11.29 223.956 11.4333 223.923 11.59C223.883 11.7067 223.828 11.785 223.758 11.825C223.691 11.8617 223.596 11.8717 223.473 11.855L223.008 11.775C223.055 11.4483 223.145 11.16 223.278 10.91C223.415 10.6567 223.585 10.445 223.788 10.275C223.995 10.105 224.23 9.97667 224.493 9.89C224.756 9.8 225.041 9.755 225.348 9.755C225.651 9.755 225.935 9.8 226.198 9.89C226.461 9.98 226.69 10.1117 226.883 10.285C227.076 10.455 227.228 10.6633 227.338 10.91C227.448 11.1567 227.503 11.4367 227.503 11.75C227.503 12.0167 227.463 12.265 227.383 12.495C227.303 12.7217 227.195 12.9383 227.058 13.145C226.921 13.3517 226.763 13.5533 226.583 13.75C226.406 13.9467 226.218 14.145 226.018 14.345L224.128 16.275C224.261 16.2383 224.396 16.21 224.533 16.19C224.67 16.1667 224.801 16.155 224.928 16.155H227.328Z" fill="white"/>
<ellipse cx="425.739" cy="12.5" rx="12.87" ry="12.5" fill="#CCCCCC"/>
<path d="M423.815 11.775C423.862 11.4483 423.952 11.16 424.085 10.91C424.218 10.6567 424.387 10.445 424.59 10.275C424.797 10.105 425.032 9.97667 425.295 9.89C425.562 9.8 425.848 9.755 426.155 9.755C426.458 9.755 426.738 9.79833 426.995 9.885C427.252 9.97167 427.472 10.095 427.655 10.255C427.842 10.415 427.987 10.6083 428.09 10.835C428.193 11.0617 428.245 11.3133 428.245 11.59C428.245 11.8167 428.215 12.02 428.155 12.2C428.098 12.3767 428.015 12.5317 427.905 12.665C427.798 12.7983 427.668 12.9117 427.515 13.005C427.362 13.0983 427.19 13.175 427 13.235C427.467 13.355 427.817 13.5617 428.05 13.855C428.287 14.145 428.405 14.5083 428.405 14.945C428.405 15.275 428.342 15.5717 428.215 15.835C428.092 16.0983 427.922 16.3233 427.705 16.51C427.488 16.6933 427.235 16.835 426.945 16.935C426.658 17.0317 426.35 17.08 426.02 17.08C425.64 17.08 425.315 17.0333 425.045 16.94C424.775 16.8433 424.547 16.7117 424.36 16.545C424.173 16.3783 424.02 16.1817 423.9 15.955C423.78 15.725 423.678 15.4767 423.595 15.21L423.98 15.05C424.08 15.0067 424.177 14.995 424.27 15.015C424.367 15.035 424.437 15.09 424.48 15.18C424.523 15.2733 424.577 15.385 424.64 15.515C424.707 15.645 424.797 15.77 424.91 15.89C425.023 16.01 425.167 16.1117 425.34 16.195C425.517 16.2783 425.74 16.32 426.01 16.32C426.26 16.32 426.478 16.28 426.665 16.2C426.855 16.1167 427.012 16.01 427.135 15.88C427.262 15.75 427.357 15.605 427.42 15.445C427.483 15.285 427.515 15.1267 427.515 14.97C427.515 14.7767 427.49 14.6 427.44 14.44C427.39 14.28 427.297 14.1417 427.16 14.025C427.023 13.9083 426.835 13.8167 426.595 13.75C426.358 13.6833 426.053 13.65 425.68 13.65V13.005C425.987 13.0017 426.247 12.9683 426.46 12.905C426.677 12.8417 426.852 12.755 426.985 12.645C427.122 12.535 427.22 12.4033 427.28 12.25C427.343 12.0967 427.375 11.9267 427.375 11.74C427.375 11.5333 427.342 11.3533 427.275 11.2C427.212 11.0467 427.123 10.92 427.01 10.82C426.897 10.72 426.762 10.645 426.605 10.595C426.452 10.545 426.285 10.52 426.105 10.52C425.925 10.52 425.757 10.5467 425.6 10.6C425.447 10.6533 425.31 10.7283 425.19 10.825C425.073 10.9183 424.975 11.03 424.895 11.16C424.815 11.29 424.758 11.4333 424.725 11.59C424.682 11.7067 424.627 11.785 424.56 11.825C424.497 11.8617 424.403 11.8717 424.28 11.855L423.815 11.775Z" fill="white"/>
<path d="M6.44 42.586C6.39333 42.6653 6.34433 42.7237 6.293 42.761C6.24167 42.7983 6.17633 42.817 6.097 42.817C6.013 42.817 5.91733 42.7797 5.81 42.705C5.70267 42.6257 5.56733 42.5393 5.404 42.446C5.24533 42.348 5.054 42.2617 4.83 42.187C4.606 42.1077 4.33767 42.068 4.025 42.068C3.731 42.068 3.472 42.1077 3.248 42.187C3.02867 42.2617 2.84433 42.3667 2.695 42.502C2.54567 42.6327 2.43133 42.789 2.352 42.971C2.27733 43.1483 2.24 43.342 2.24 43.552C2.24 43.8227 2.30767 44.0467 2.443 44.224C2.583 44.4013 2.765 44.553 2.989 44.679C3.213 44.805 3.46733 44.9147 3.752 45.008C4.03667 45.1013 4.32833 45.1993 4.627 45.302C4.92567 45.4 5.21733 45.5143 5.502 45.645C5.78667 45.7757 6.041 45.9413 6.265 46.142C6.489 46.338 6.66867 46.5807 6.804 46.87C6.944 47.1547 7.014 47.5047 7.014 47.92C7.014 48.3633 6.937 48.7787 6.783 49.166C6.63367 49.5533 6.41433 49.8917 6.125 50.181C5.83567 50.4703 5.47867 50.699 5.054 50.867C4.634 51.0303 4.15567 51.112 3.619 51.112C3.297 51.112 2.98433 51.0793 2.681 51.014C2.37767 50.9533 2.09067 50.867 1.82 50.755C1.54933 50.6383 1.295 50.5007 1.057 50.342C0.823667 50.1787 0.613667 49.9967 0.427 49.796L0.854 49.082C0.896 49.026 0.945 48.9793 1.001 48.942C1.06167 48.9047 1.12933 48.886 1.204 48.886C1.302 48.886 1.414 48.9373 1.54 49.04C1.67067 49.1427 1.82933 49.257 2.016 49.383C2.20733 49.5043 2.43367 49.6163 2.695 49.719C2.961 49.8217 3.283 49.873 3.661 49.873C3.969 49.873 4.24433 49.8333 4.487 49.754C4.72967 49.67 4.93267 49.5533 5.096 49.404C5.264 49.25 5.39233 49.0657 5.481 48.851C5.56967 48.6363 5.614 48.3983 5.614 48.137C5.614 47.843 5.54633 47.6027 5.411 47.416C5.27567 47.2293 5.096 47.073 4.872 46.947C4.648 46.821 4.39367 46.7137 4.109 46.625C3.82433 46.5363 3.53267 46.4453 3.234 46.352C2.93533 46.254 2.64367 46.142 2.359 46.016C2.07433 45.89 1.82 45.7267 1.596 45.526C1.372 45.3207 1.19233 45.0663 1.057 44.763C0.921667 44.455 0.854 44.077 0.854 43.629C0.854 43.2697 0.924 42.922 1.064 42.586C1.204 42.25 1.407 41.9537 1.673 41.697C1.94367 41.4357 2.275 41.228 2.667 41.074C3.059 40.9153 3.507 40.836 4.011 40.836C4.57567 40.836 5.09367 40.927 5.565 41.109C6.041 41.2863 6.454 41.543 6.804 41.879L6.44 42.586ZM9.94755 43.888V51H8.58255V43.888H9.94755ZM10.2065 41.69C10.2065 41.816 10.1809 41.9373 10.1295 42.054C10.0782 42.166 10.0082 42.2663 9.91955 42.355C9.83555 42.439 9.73521 42.5067 9.61855 42.558C9.50188 42.6047 9.38055 42.628 9.25455 42.628C9.12855 42.628 9.00955 42.6047 8.89755 42.558C8.78555 42.5067 8.68521 42.439 8.59655 42.355C8.51255 42.2663 8.44488 42.166 8.39355 42.054C8.34688 41.9373 8.32355 41.816 8.32355 41.69C8.32355 41.5593 8.34688 41.438 8.39355 41.326C8.44488 41.2093 8.51255 41.109 8.59655 41.025C8.68521 40.9363 8.78555 40.8687 8.89755 40.822C9.00955 40.7707 9.12855 40.745 9.25455 40.745C9.38055 40.745 9.50188 40.7707 9.61855 40.822C9.73521 40.8687 9.83555 40.9363 9.91955 41.025C10.0082 41.109 10.0782 41.2093 10.1295 41.326C10.1809 41.438 10.2065 41.5593 10.2065 41.69ZM14.4228 47.451C14.6655 47.451 14.8778 47.4183 15.0598 47.353C15.2465 47.2877 15.4005 47.1967 15.5218 47.08C15.6478 46.9587 15.7412 46.814 15.8018 46.646C15.8672 46.478 15.8998 46.2937 15.8998 46.093C15.8998 45.6823 15.7738 45.3557 15.5218 45.113C15.2745 44.8657 14.9082 44.742 14.4228 44.742C13.9422 44.742 13.5758 44.8657 13.3238 45.113C13.0765 45.3557 12.9528 45.6823 12.9528 46.093C12.9528 46.2937 12.9832 46.478 13.0438 46.646C13.1092 46.8093 13.2025 46.9517 13.3238 47.073C13.4498 47.1897 13.6038 47.283 13.7858 47.353C13.9725 47.4183 14.1848 47.451 14.4228 47.451ZM16.5998 51.371C16.5998 51.203 16.5532 51.07 16.4598 50.972C16.3665 50.8693 16.2382 50.79 16.0748 50.734C15.9162 50.6733 15.7295 50.6313 15.5148 50.608C15.3002 50.58 15.0738 50.559 14.8358 50.545C14.6025 50.531 14.3622 50.5193 14.1148 50.51C13.8675 50.496 13.6295 50.4727 13.4008 50.44C13.1582 50.5613 12.9575 50.7083 12.7988 50.881C12.6448 51.0537 12.5678 51.2567 12.5678 51.49C12.5678 51.6393 12.6052 51.7793 12.6798 51.91C12.7592 52.0407 12.8782 52.1527 13.0368 52.246C13.2002 52.344 13.4032 52.4187 13.6458 52.47C13.8932 52.526 14.1872 52.554 14.5278 52.554C14.8638 52.554 15.1602 52.5237 15.4168 52.463C15.6735 52.407 15.8882 52.3253 16.0608 52.218C16.2382 52.1153 16.3712 51.9917 16.4598 51.847C16.5532 51.7023 16.5998 51.5437 16.5998 51.371ZM17.9858 44.154V44.665C17.9858 44.833 17.8808 44.938 17.6708 44.98L16.9078 45.092C16.9732 45.2367 17.0245 45.3907 17.0618 45.554C17.0992 45.7127 17.1178 45.8807 17.1178 46.058C17.1178 46.408 17.0502 46.7253 16.9148 47.01C16.7795 47.29 16.5928 47.5303 16.3548 47.731C16.1168 47.9317 15.8322 48.0857 15.5008 48.193C15.1742 48.3003 14.8148 48.354 14.4228 48.354C14.1008 48.354 13.7998 48.319 13.5198 48.249C13.3798 48.333 13.2725 48.4263 13.1978 48.529C13.1278 48.627 13.0928 48.725 13.0928 48.823C13.0928 48.9863 13.1605 49.1077 13.2958 49.187C13.4358 49.2663 13.6155 49.3247 13.8348 49.362C14.0588 49.3947 14.3132 49.4157 14.5978 49.425C14.8872 49.4343 15.1788 49.4507 15.4728 49.474C15.7715 49.4927 16.0632 49.53 16.3478 49.586C16.6372 49.6373 16.8915 49.7237 17.1108 49.845C17.3348 49.9617 17.5145 50.125 17.6498 50.335C17.7898 50.5403 17.8598 50.8087 17.8598 51.14C17.8598 51.448 17.7828 51.7467 17.6288 52.036C17.4795 52.3253 17.2602 52.582 16.9708 52.806C16.6815 53.03 16.3292 53.2097 15.9138 53.345C15.4985 53.4803 15.0272 53.548 14.4998 53.548C13.9725 53.548 13.5128 53.4967 13.1208 53.394C12.7335 53.2913 12.4092 53.1537 12.1478 52.981C11.8912 52.8083 11.6975 52.6077 11.5668 52.379C11.4408 52.1503 11.3778 51.9123 11.3778 51.665C11.3778 51.3197 11.4852 51.028 11.6998 50.79C11.9145 50.5473 12.2108 50.3583 12.5888 50.223C12.3835 50.1297 12.2202 50.0037 12.0988 49.845C11.9775 49.6817 11.9168 49.467 11.9168 49.201C11.9168 49.0983 11.9355 48.9933 11.9728 48.886C12.0102 48.774 12.0662 48.6643 12.1408 48.557C12.2202 48.445 12.3158 48.34 12.4278 48.242C12.5445 48.144 12.6775 48.0553 12.8268 47.976C12.4768 47.78 12.2015 47.521 12.0008 47.199C11.8002 46.8723 11.6998 46.492 11.6998 46.058C11.6998 45.708 11.7675 45.393 11.9028 45.113C12.0382 44.833 12.2248 44.5927 12.4628 44.392C12.7055 44.1913 12.9925 44.0373 13.3238 43.93C13.6598 43.8227 14.0262 43.769 14.4228 43.769C15.0388 43.769 15.5685 43.8973 16.0118 44.154H17.9858ZM20.5193 44.875C20.6733 44.7117 20.8343 44.5623 21.0023 44.427C21.1703 44.2917 21.3476 44.1773 21.5343 44.084C21.7256 43.986 21.9286 43.9113 22.1433 43.86C22.3626 43.804 22.596 43.776 22.8433 43.776C23.2353 43.776 23.5783 43.8413 23.8723 43.972C24.171 44.1027 24.4206 44.287 24.6213 44.525C24.822 44.7583 24.9736 45.0407 25.0763 45.372C25.179 45.7033 25.2303 46.0697 25.2303 46.471V51H23.8583V46.471C23.8583 45.9623 23.7416 45.568 23.5083 45.288C23.275 45.0033 22.918 44.861 22.4373 44.861C22.0873 44.861 21.7583 44.945 21.4503 45.113C21.147 45.2763 20.8646 45.5003 20.6033 45.785V51H19.2383V43.888H20.0573C20.2486 43.888 20.3676 43.979 20.4143 44.161L20.5193 44.875ZM34.8133 49.803C35.2146 49.803 35.574 49.7353 35.8913 49.6C36.2086 49.4647 36.477 49.2757 36.6963 49.033C36.9156 48.7857 37.0836 48.494 37.2003 48.158C37.317 47.8173 37.3753 47.4417 37.3753 47.031V40.948H38.8593V47.031C38.8593 47.619 38.766 48.1627 38.5793 48.662C38.3926 49.1613 38.1243 49.593 37.7743 49.957C37.4243 50.321 36.9996 50.6057 36.5003 50.811C36.001 51.0163 35.4386 51.119 34.8133 51.119C34.188 51.119 33.6256 51.0163 33.1263 50.811C32.627 50.6057 32.2023 50.321 31.8523 49.957C31.5023 49.593 31.234 49.1613 31.0473 48.662C30.8606 48.1627 30.7673 47.619 30.7673 47.031V40.948H32.2583V47.024C32.2583 47.4347 32.3143 47.8103 32.4263 48.151C32.543 48.4917 32.711 48.7857 32.9303 49.033C33.1496 49.2757 33.418 49.4647 33.7353 49.6C34.0526 49.7353 34.412 49.803 34.8133 49.803ZM42.0818 49.25C42.3058 49.544 42.5461 49.7493 42.8028 49.866C43.0641 49.9827 43.3558 50.041 43.6778 50.041C44.3031 50.041 44.7861 49.817 45.1268 49.369C45.4721 48.9163 45.6448 48.2583 45.6448 47.395C45.6448 46.9423 45.6051 46.5573 45.5258 46.24C45.4511 45.918 45.3391 45.6567 45.1898 45.456C45.0451 45.2507 44.8655 45.1013 44.6508 45.008C44.4361 44.91 44.1935 44.861 43.9228 44.861C43.5261 44.861 43.1808 44.9497 42.8868 45.127C42.5975 45.3043 42.3291 45.5563 42.0818 45.883V49.25ZM42.0118 44.952C42.1611 44.7747 42.3198 44.6137 42.4878 44.469C42.6605 44.3197 42.8448 44.1937 43.0408 44.091C43.2368 43.9837 43.4445 43.902 43.6638 43.846C43.8878 43.7853 44.1258 43.755 44.3778 43.755C44.7838 43.755 45.1501 43.8343 45.4768 43.993C45.8081 44.1517 46.0905 44.385 46.3238 44.693C46.5571 45.001 46.7368 45.3813 46.8628 45.834C46.9935 46.2867 47.0588 46.807 47.0588 47.395C47.0588 47.9223 46.9865 48.4123 46.8418 48.865C46.7018 49.313 46.4988 49.7027 46.2328 50.034C45.9715 50.3653 45.6495 50.6267 45.2668 50.818C44.8888 51.0047 44.4618 51.098 43.9858 51.098C43.5611 51.098 43.1971 51.028 42.8938 50.888C42.5905 50.748 42.3198 50.552 42.0818 50.3V53.387H40.7168V43.888H41.5358C41.7271 43.888 41.8461 43.979 41.8928 44.161L42.0118 44.952Z" fill="black"/>
<path d="M189.469 48.844C189.553 48.844 189.626 48.8767 189.686 48.942L190.274 49.586C189.864 50.0713 189.362 50.447 188.769 50.713C188.181 50.979 187.472 51.112 186.641 51.112C185.913 51.112 185.253 50.986 184.66 50.734C184.072 50.482 183.568 50.1297 183.148 49.677C182.733 49.2243 182.411 48.683 182.182 48.053C181.954 47.423 181.839 46.73 181.839 45.974C181.839 45.218 181.958 44.525 182.196 43.895C182.439 43.265 182.777 42.7237 183.211 42.271C183.645 41.8183 184.163 41.466 184.765 41.214C185.372 40.962 186.042 40.836 186.774 40.836C187.488 40.836 188.123 40.9527 188.678 41.186C189.234 41.4193 189.717 41.7297 190.127 42.117L189.637 42.81C189.605 42.8613 189.563 42.9033 189.511 42.936C189.465 42.9687 189.402 42.985 189.322 42.985C189.234 42.985 189.129 42.9407 189.007 42.852C188.891 42.7633 188.734 42.6653 188.538 42.558C188.347 42.446 188.109 42.3457 187.824 42.257C187.54 42.1683 187.185 42.124 186.76 42.124C186.261 42.124 185.804 42.2127 185.388 42.39C184.973 42.5627 184.614 42.8147 184.31 43.146C184.012 43.4727 183.778 43.8763 183.61 44.357C183.447 44.833 183.365 45.372 183.365 45.974C183.365 46.5853 183.452 47.129 183.624 47.605C183.797 48.081 184.035 48.4847 184.338 48.816C184.642 49.1473 184.999 49.3993 185.409 49.572C185.82 49.7447 186.263 49.831 186.739 49.831C187.029 49.831 187.288 49.8147 187.516 49.782C187.75 49.7447 187.962 49.691 188.153 49.621C188.349 49.551 188.534 49.4623 188.706 49.355C188.879 49.243 189.049 49.11 189.217 48.956C189.255 48.9233 189.294 48.8977 189.336 48.879C189.378 48.8557 189.423 48.844 189.469 48.844ZM192.74 45.253C192.968 44.7863 193.244 44.42 193.566 44.154C193.888 43.888 194.275 43.755 194.728 43.755C194.882 43.755 195.026 43.7737 195.162 43.811C195.302 43.8437 195.423 43.895 195.526 43.965L195.435 44.994C195.402 45.12 195.325 45.183 195.204 45.183C195.138 45.183 195.04 45.1713 194.91 45.148C194.779 45.12 194.639 45.106 194.49 45.106C194.27 45.106 194.077 45.1387 193.909 45.204C193.741 45.2647 193.589 45.358 193.454 45.484C193.323 45.6053 193.206 45.757 193.104 45.939C193.001 46.1163 192.905 46.3193 192.817 46.548V51H191.452V43.888H192.236C192.385 43.888 192.485 43.916 192.537 43.972C192.593 44.0233 192.632 44.1167 192.656 44.252L192.74 45.253ZM201.03 46.653C201.03 46.3823 200.99 46.1327 200.911 45.904C200.836 45.6753 200.724 45.477 200.575 45.309C200.426 45.141 200.244 45.0103 200.029 44.917C199.814 44.8237 199.567 44.777 199.287 44.777C198.713 44.777 198.26 44.9427 197.929 45.274C197.602 45.6053 197.395 46.065 197.306 46.653H201.03ZM202.157 49.985C201.989 50.181 201.795 50.3513 201.576 50.496C201.357 50.636 201.123 50.7503 200.876 50.839C200.629 50.9277 200.372 50.993 200.106 51.035C199.845 51.077 199.586 51.098 199.329 51.098C198.839 51.098 198.384 51.0163 197.964 50.853C197.549 50.685 197.187 50.4423 196.879 50.125C196.576 49.803 196.338 49.4063 196.165 48.935C195.997 48.459 195.913 47.913 195.913 47.297C195.913 46.8023 195.99 46.3427 196.144 45.918C196.298 45.4887 196.517 45.1153 196.802 44.798C197.091 44.4807 197.444 44.231 197.859 44.049C198.274 43.867 198.741 43.776 199.259 43.776C199.693 43.776 200.092 43.8483 200.456 43.993C200.825 44.133 201.142 44.3383 201.408 44.609C201.674 44.8797 201.882 45.2133 202.031 45.61C202.185 46.0067 202.262 46.4593 202.262 46.968C202.262 47.178 202.239 47.3203 202.192 47.395C202.145 47.465 202.059 47.5 201.933 47.5H197.271C197.285 47.9247 197.346 48.2957 197.453 48.613C197.56 48.9257 197.707 49.187 197.894 49.397C198.085 49.607 198.312 49.7633 198.573 49.866C198.834 49.9687 199.126 50.02 199.448 50.02C199.751 50.02 200.013 49.985 200.232 49.915C200.456 49.845 200.647 49.7703 200.806 49.691C200.969 49.607 201.105 49.53 201.212 49.46C201.324 49.39 201.422 49.355 201.506 49.355C201.618 49.355 201.704 49.397 201.765 49.481L202.157 49.985ZM207.551 47.843C206.996 47.8617 206.524 47.906 206.137 47.976C205.75 48.0413 205.435 48.13 205.192 48.242C204.949 48.354 204.774 48.487 204.667 48.641C204.56 48.7903 204.506 48.9583 204.506 49.145C204.506 49.3223 204.534 49.4763 204.59 49.607C204.651 49.733 204.73 49.838 204.828 49.922C204.931 50.0013 205.05 50.0597 205.185 50.097C205.32 50.1343 205.467 50.153 205.626 50.153C205.836 50.153 206.027 50.132 206.2 50.09C206.377 50.048 206.543 49.9897 206.697 49.915C206.851 49.8357 206.998 49.74 207.138 49.628C207.278 49.516 207.416 49.3877 207.551 49.243V47.843ZM203.547 44.882C203.944 44.504 204.373 44.2217 204.835 44.035C205.302 43.8483 205.813 43.755 206.368 43.755C206.774 43.755 207.133 43.8227 207.446 43.958C207.759 44.0887 208.022 44.273 208.237 44.511C208.452 44.749 208.613 45.0337 208.72 45.365C208.832 45.6963 208.888 46.0627 208.888 46.464V51H208.279C208.144 51 208.041 50.979 207.971 50.937C207.901 50.8903 207.845 50.8063 207.803 50.685L207.656 50.062C207.474 50.23 207.294 50.3793 207.117 50.51C206.94 50.636 206.753 50.7457 206.557 50.839C206.366 50.9277 206.16 50.9953 205.941 51.042C205.722 51.0887 205.479 51.112 205.213 51.112C204.933 51.112 204.669 51.0747 204.422 51C204.179 50.9207 203.967 50.8017 203.785 50.643C203.603 50.4843 203.458 50.286 203.351 50.048C203.248 49.81 203.197 49.5323 203.197 49.215C203.197 48.935 203.272 48.6667 203.421 48.41C203.575 48.1487 203.822 47.9153 204.163 47.71C204.508 47.5047 204.956 47.3367 205.507 47.206C206.062 47.0753 206.744 47.0007 207.551 46.982V46.464C207.551 45.9273 207.437 45.526 207.208 45.26C206.979 44.994 206.643 44.861 206.2 44.861C205.901 44.861 205.649 44.8983 205.444 44.973C205.243 45.0477 205.068 45.1317 204.919 45.225C204.774 45.3137 204.646 45.3953 204.534 45.47C204.427 45.5447 204.315 45.582 204.198 45.582C204.105 45.582 204.023 45.5563 203.953 45.505C203.888 45.4537 203.834 45.393 203.792 45.323L203.547 44.882ZM212.846 51.112C212.272 51.112 211.828 50.951 211.516 50.629C211.208 50.307 211.054 49.8473 211.054 49.25V44.994H210.228C210.148 44.994 210.081 44.9707 210.025 44.924C209.973 44.8727 209.948 44.798 209.948 44.7V44.147L211.103 43.986L211.411 41.865C211.429 41.7857 211.464 41.725 211.516 41.683C211.572 41.6363 211.642 41.613 211.726 41.613H212.419V44H214.435V44.994H212.419V49.159C212.419 49.439 212.486 49.649 212.622 49.789C212.762 49.9243 212.939 49.992 213.154 49.992C213.28 49.992 213.387 49.9757 213.476 49.943C213.569 49.9103 213.648 49.8753 213.714 49.838C213.779 49.796 213.835 49.7587 213.882 49.726C213.928 49.6933 213.97 49.677 214.008 49.677C214.054 49.677 214.089 49.6887 214.113 49.712C214.141 49.7307 214.169 49.7633 214.197 49.81L214.603 50.468C214.379 50.6733 214.113 50.832 213.805 50.944C213.497 51.056 213.177 51.112 212.846 51.112ZM220.362 46.653C220.362 46.3823 220.322 46.1327 220.243 45.904C220.168 45.6753 220.056 45.477 219.907 45.309C219.758 45.141 219.576 45.0103 219.361 44.917C219.146 44.8237 218.899 44.777 218.619 44.777C218.045 44.777 217.592 44.9427 217.261 45.274C216.934 45.6053 216.727 46.065 216.638 46.653H220.362ZM221.489 49.985C221.321 50.181 221.127 50.3513 220.908 50.496C220.689 50.636 220.455 50.7503 220.208 50.839C219.961 50.9277 219.704 50.993 219.438 51.035C219.177 51.077 218.918 51.098 218.661 51.098C218.171 51.098 217.716 51.0163 217.296 50.853C216.881 50.685 216.519 50.4423 216.211 50.125C215.908 49.803 215.67 49.4063 215.497 48.935C215.329 48.459 215.245 47.913 215.245 47.297C215.245 46.8023 215.322 46.3427 215.476 45.918C215.63 45.4887 215.849 45.1153 216.134 44.798C216.423 44.4807 216.776 44.231 217.191 44.049C217.606 43.867 218.073 43.776 218.591 43.776C219.025 43.776 219.424 43.8483 219.788 43.993C220.157 44.133 220.474 44.3383 220.74 44.609C221.006 44.8797 221.214 45.2133 221.363 45.61C221.517 46.0067 221.594 46.4593 221.594 46.968C221.594 47.178 221.571 47.3203 221.524 47.395C221.477 47.465 221.391 47.5 221.265 47.5H216.603C216.617 47.9247 216.678 48.2957 216.785 48.613C216.892 48.9257 217.039 49.187 217.226 49.397C217.417 49.607 217.644 49.7633 217.905 49.866C218.166 49.9687 218.458 50.02 218.78 50.02C219.083 50.02 219.345 49.985 219.564 49.915C219.788 49.845 219.979 49.7703 220.138 49.691C220.301 49.607 220.437 49.53 220.544 49.46C220.656 49.39 220.754 49.355 220.838 49.355C220.95 49.355 221.036 49.397 221.097 49.481L221.489 49.985ZM229.927 46.121C230.305 46.121 230.636 46.072 230.921 45.974C231.21 45.876 231.451 45.7383 231.642 45.561C231.838 45.379 231.985 45.1643 232.083 44.917C232.181 44.665 232.23 44.3873 232.23 44.084C232.23 43.4727 232.039 42.992 231.656 42.642C231.278 42.292 230.702 42.117 229.927 42.117H228.373V46.121H229.927ZM229.927 40.948C230.571 40.948 231.131 41.0227 231.607 41.172C232.083 41.3213 232.477 41.5337 232.79 41.809C233.103 42.0797 233.334 42.4087 233.483 42.796C233.637 43.1833 233.714 43.6127 233.714 44.084C233.714 44.5553 233.632 44.9893 233.469 45.386C233.306 45.778 233.065 46.1163 232.748 46.401C232.431 46.6857 232.034 46.9073 231.558 47.066C231.087 47.22 230.543 47.297 229.927 47.297H228.373V51H226.882V40.948H229.927ZM236.244 45.253C236.472 44.7863 236.748 44.42 237.07 44.154C237.392 43.888 237.779 43.755 238.232 43.755C238.386 43.755 238.53 43.7737 238.666 43.811C238.806 43.8437 238.927 43.895 239.03 43.965L238.939 44.994C238.906 45.12 238.829 45.183 238.708 45.183C238.642 45.183 238.544 45.1713 238.414 45.148C238.283 45.12 238.143 45.106 237.994 45.106C237.774 45.106 237.581 45.1387 237.413 45.204C237.245 45.2647 237.093 45.358 236.958 45.484C236.827 45.6053 236.71 45.757 236.608 45.939C236.505 46.1163 236.409 46.3193 236.321 46.548V51H234.956V43.888H235.74C235.889 43.888 235.989 43.916 236.041 43.972C236.097 44.0233 236.136 44.1167 236.16 44.252L236.244 45.253ZM242.854 43.776C243.376 43.776 243.848 43.8623 244.268 44.035C244.692 44.203 245.052 44.448 245.346 44.77C245.644 45.0873 245.873 45.4723 246.032 45.925C246.19 46.373 246.27 46.877 246.27 47.437C246.27 47.997 246.19 48.5033 246.032 48.956C245.873 49.4087 245.644 49.7937 245.346 50.111C245.052 50.4283 244.692 50.6733 244.268 50.846C243.848 51.014 243.376 51.098 242.854 51.098C242.326 51.098 241.85 51.014 241.426 50.846C241.006 50.6733 240.646 50.4283 240.348 50.111C240.049 49.7937 239.818 49.4087 239.655 48.956C239.496 48.5033 239.417 47.997 239.417 47.437C239.417 46.877 239.496 46.373 239.655 45.925C239.818 45.4723 240.049 45.0873 240.348 44.77C240.646 44.448 241.006 44.203 241.426 44.035C241.85 43.8623 242.326 43.776 242.854 43.776ZM242.854 50.034C243.526 50.034 244.027 49.8077 244.359 49.355C244.69 48.9023 244.856 48.2653 244.856 47.444C244.856 46.6227 244.69 45.9857 244.359 45.533C244.027 45.0757 243.526 44.847 242.854 44.847C242.172 44.847 241.664 45.0757 241.328 45.533C240.996 45.9857 240.831 46.6227 240.831 47.444C240.831 48.2653 240.996 48.9023 241.328 49.355C241.664 49.8077 242.172 50.034 242.854 50.034ZM248.105 51V45.008L247.363 44.917C247.256 44.8937 247.167 44.8563 247.097 44.805C247.032 44.749 246.999 44.6697 246.999 44.567V44H248.105V43.657C248.105 43.223 248.173 42.824 248.308 42.46C248.448 42.0913 248.656 41.774 248.931 41.508C249.211 41.242 249.557 41.0367 249.967 40.892C250.383 40.7427 250.868 40.668 251.423 40.668C251.601 40.668 251.787 40.6797 251.983 40.703C252.179 40.7263 252.345 40.7613 252.48 40.808L252.431 41.522C252.422 41.6153 252.364 41.6643 252.256 41.669C252.149 41.6737 252 41.676 251.808 41.676C251.384 41.676 251.022 41.718 250.723 41.802C250.425 41.886 250.18 42.012 249.988 42.18C249.797 42.348 249.657 42.5603 249.568 42.817C249.48 43.069 249.435 43.363 249.435 43.699V44H253.761V51H252.389V44.994H249.477V51H248.105ZM257.137 40.668V51H255.765V40.668H257.137ZM263.797 46.653C263.797 46.3823 263.758 46.1327 263.678 45.904C263.604 45.6753 263.492 45.477 263.342 45.309C263.193 45.141 263.011 45.0103 262.796 44.917C262.582 44.8237 262.334 44.777 262.054 44.777C261.48 44.777 261.028 44.9427 260.696 45.274C260.37 45.6053 260.162 46.065 260.073 46.653H263.797ZM264.924 49.985C264.756 50.181 264.563 50.3513 264.343 50.496C264.124 50.636 263.891 50.7503 263.643 50.839C263.396 50.9277 263.139 50.993 262.873 51.035C262.612 51.077 262.353 51.098 262.096 51.098C261.606 51.098 261.151 51.0163 260.731 50.853C260.316 50.685 259.954 50.4423 259.646 50.125C259.343 49.803 259.105 49.4063 258.932 48.935C258.764 48.459 258.68 47.913 258.68 47.297C258.68 46.8023 258.757 46.3427 258.911 45.918C259.065 45.4887 259.285 45.1153 259.569 44.798C259.859 44.4807 260.211 44.231 260.626 44.049C261.042 43.867 261.508 43.776 262.026 43.776C262.46 43.776 262.859 43.8483 263.223 43.993C263.592 44.133 263.909 44.3383 264.175 44.609C264.441 44.8797 264.649 45.2133 264.798 45.61C264.952 46.0067 265.029 46.4593 265.029 46.968C265.029 47.178 265.006 47.3203 264.959 47.395C264.913 47.465 264.826 47.5 264.7 47.5H260.038C260.052 47.9247 260.113 48.2957 260.22 48.613C260.328 48.9257 260.475 49.187 260.661 49.397C260.853 49.607 261.079 49.7633 261.34 49.866C261.602 49.9687 261.893 50.02 262.215 50.02C262.519 50.02 262.78 49.985 262.999 49.915C263.223 49.845 263.415 49.7703 263.573 49.691C263.737 49.607 263.872 49.53 263.979 49.46C264.091 49.39 264.189 49.355 264.273 49.355C264.385 49.355 264.472 49.397 264.532 49.481L264.924 49.985Z" fill="black"/>
<path d="M371.947 42.586C371.901 42.6653 371.852 42.7237 371.8 42.761C371.749 42.7983 371.684 42.817 371.604 42.817C371.52 42.817 371.425 42.7797 371.317 42.705C371.21 42.6257 371.075 42.5393 370.911 42.446C370.753 42.348 370.561 42.2617 370.337 42.187C370.113 42.1077 369.845 42.068 369.532 42.068C369.238 42.068 368.979 42.1077 368.755 42.187C368.536 42.2617 368.352 42.3667 368.202 42.502C368.053 42.6327 367.939 42.789 367.859 42.971C367.785 43.1483 367.747 43.342 367.747 43.552C367.747 43.8227 367.815 44.0467 367.95 44.224C368.09 44.4013 368.272 44.553 368.496 44.679C368.72 44.805 368.975 44.9147 369.259 45.008C369.544 45.1013 369.836 45.1993 370.134 45.302C370.433 45.4 370.725 45.5143 371.009 45.645C371.294 45.7757 371.548 45.9413 371.772 46.142C371.996 46.338 372.176 46.5807 372.311 46.87C372.451 47.1547 372.521 47.5047 372.521 47.92C372.521 48.3633 372.444 48.7787 372.29 49.166C372.141 49.5533 371.922 49.8917 371.632 50.181C371.343 50.4703 370.986 50.699 370.561 50.867C370.141 51.0303 369.663 51.112 369.126 51.112C368.804 51.112 368.492 51.0793 368.188 51.014C367.885 50.9533 367.598 50.867 367.327 50.755C367.057 50.6383 366.802 50.5007 366.564 50.342C366.331 50.1787 366.121 49.9967 365.934 49.796L366.361 49.082C366.403 49.026 366.452 48.9793 366.508 48.942C366.569 48.9047 366.637 48.886 366.711 48.886C366.809 48.886 366.921 48.9373 367.047 49.04C367.178 49.1427 367.337 49.257 367.523 49.383C367.715 49.5043 367.941 49.6163 368.202 49.719C368.468 49.8217 368.79 49.873 369.168 49.873C369.476 49.873 369.752 49.8333 369.994 49.754C370.237 49.67 370.44 49.5533 370.603 49.404C370.771 49.25 370.9 49.0657 370.988 48.851C371.077 48.6363 371.121 48.3983 371.121 48.137C371.121 47.843 371.054 47.6027 370.918 47.416C370.783 47.2293 370.603 47.073 370.379 46.947C370.155 46.821 369.901 46.7137 369.616 46.625C369.332 46.5363 369.04 46.4453 368.741 46.352C368.443 46.254 368.151 46.142 367.866 46.016C367.582 45.89 367.327 45.7267 367.103 45.526C366.879 45.3207 366.7 45.0663 366.564 44.763C366.429 44.455 366.361 44.077 366.361 43.629C366.361 43.2697 366.431 42.922 366.571 42.586C366.711 42.25 366.914 41.9537 367.18 41.697C367.451 41.4357 367.782 41.228 368.174 41.074C368.566 40.9153 369.014 40.836 369.518 40.836C370.083 40.836 370.601 40.927 371.072 41.109C371.548 41.2863 371.961 41.543 372.311 41.879L371.947 42.586ZM379.86 43.888V51H379.041C378.854 51 378.733 50.909 378.677 50.727L378.579 50.013C378.425 50.1763 378.264 50.3257 378.096 50.461C377.928 50.5963 377.748 50.713 377.557 50.811C377.366 50.9043 377.163 50.9767 376.948 51.028C376.733 51.084 376.502 51.112 376.255 51.112C375.863 51.112 375.518 51.0467 375.219 50.916C374.925 50.7853 374.678 50.6033 374.477 50.37C374.276 50.132 374.125 49.8473 374.022 49.516C373.919 49.1847 373.868 48.8183 373.868 48.417V43.888H375.24V48.417C375.24 48.9257 375.357 49.3223 375.59 49.607C375.823 49.887 376.18 50.027 376.661 50.027C377.011 50.027 377.338 49.9453 377.641 49.782C377.944 49.614 378.229 49.3853 378.495 49.096V43.888H379.86ZM383.13 49.25C383.354 49.544 383.597 49.7493 383.858 49.866C384.119 49.9827 384.404 50.041 384.712 50.041C385.347 50.041 385.834 49.8147 386.175 49.362C386.52 48.9093 386.693 48.2257 386.693 47.311C386.693 46.4663 386.541 45.848 386.238 45.456C385.935 45.0593 385.505 44.861 384.95 44.861C384.558 44.861 384.217 44.9497 383.928 45.127C383.643 45.3043 383.377 45.5563 383.13 45.883V49.25ZM383.13 44.868C383.424 44.5413 383.758 44.2777 384.131 44.077C384.504 43.8763 384.929 43.776 385.405 43.776C385.82 43.776 386.194 43.8577 386.525 44.021C386.861 44.1797 387.146 44.4107 387.379 44.714C387.612 45.0127 387.792 45.3767 387.918 45.806C388.044 46.2353 388.107 46.7207 388.107 47.262C388.107 47.836 388.035 48.3587 387.89 48.83C387.75 49.3013 387.547 49.705 387.281 50.041C387.02 50.377 386.7 50.6383 386.322 50.825C385.944 51.007 385.519 51.098 385.048 51.098C384.819 51.098 384.609 51.0747 384.418 51.028C384.227 50.986 384.049 50.923 383.886 50.839C383.727 50.755 383.58 50.6523 383.445 50.531C383.31 50.4097 383.181 50.272 383.06 50.118L382.997 50.713C382.96 50.9043 382.843 51 382.647 51H381.765V40.668H383.13V44.868ZM389.626 51V43.888H390.445C390.637 43.888 390.756 43.979 390.802 44.161L390.9 44.84C391.162 44.5273 391.451 44.273 391.768 44.077C392.09 43.8763 392.466 43.776 392.895 43.776C393.367 43.776 393.749 43.9067 394.043 44.168C394.337 44.4247 394.552 44.7747 394.687 45.218C394.79 44.966 394.923 44.749 395.086 44.567C395.25 44.385 395.432 44.2357 395.632 44.119C395.833 44.0023 396.045 43.916 396.269 43.86C396.498 43.804 396.729 43.776 396.962 43.776C397.34 43.776 397.676 43.8367 397.97 43.958C398.269 44.0747 398.521 44.2473 398.726 44.476C398.932 44.7047 399.088 44.987 399.195 45.323C399.303 45.659 399.356 46.0417 399.356 46.471V51H397.984V46.471C397.984 45.939 397.868 45.5377 397.634 45.267C397.406 44.9963 397.07 44.861 396.626 44.861C396.43 44.861 396.244 44.896 396.066 44.966C395.889 45.0313 395.733 45.1317 395.597 45.267C395.467 45.4023 395.362 45.5703 395.282 45.771C395.208 45.9717 395.17 46.205 395.17 46.471V51H393.798V46.471C393.798 45.9203 393.689 45.5143 393.469 45.253C393.25 44.9917 392.928 44.861 392.503 44.861C392.209 44.861 391.936 44.938 391.684 45.092C391.432 45.246 391.201 45.456 390.991 45.722V51H389.626ZM402.621 43.888V51H401.256V43.888H402.621ZM402.88 41.69C402.88 41.816 402.854 41.9373 402.803 42.054C402.752 42.166 402.682 42.2663 402.593 42.355C402.509 42.439 402.409 42.5067 402.292 42.558C402.175 42.6047 402.054 42.628 401.928 42.628C401.802 42.628 401.683 42.6047 401.571 42.558C401.459 42.5067 401.359 42.439 401.27 42.355C401.186 42.2663 401.118 42.166 401.067 42.054C401.02 41.9373 400.997 41.816 400.997 41.69C400.997 41.5593 401.02 41.438 401.067 41.326C401.118 41.2093 401.186 41.109 401.27 41.025C401.359 40.9363 401.459 40.8687 401.571 40.822C401.683 40.7707 401.802 40.745 401.928 40.745C402.054 40.745 402.175 40.7707 402.292 40.822C402.409 40.8687 402.509 40.9363 402.593 41.025C402.682 41.109 402.752 41.2093 402.803 41.326C402.854 41.438 402.88 41.5593 402.88 41.69ZM406.823 51.112C406.249 51.112 405.806 50.951 405.493 50.629C405.185 50.307 405.031 49.8473 405.031 49.25V44.994H404.205C404.126 44.994 404.058 44.9707 404.002 44.924C403.951 44.8727 403.925 44.798 403.925 44.7V44.147L405.08 43.986L405.388 41.865C405.407 41.7857 405.442 41.725 405.493 41.683C405.549 41.6363 405.619 41.613 405.703 41.613H406.396V44H408.412V44.994H406.396V49.159C406.396 49.439 406.464 49.649 406.599 49.789C406.739 49.9243 406.917 49.992 407.131 49.992C407.257 49.992 407.365 49.9757 407.453 49.943C407.547 49.9103 407.626 49.8753 407.691 49.838C407.757 49.796 407.813 49.7587 407.859 49.726C407.906 49.6933 407.948 49.677 407.985 49.677C408.032 49.677 408.067 49.6887 408.09 49.712C408.118 49.7307 408.146 49.7633 408.174 49.81L408.58 50.468C408.356 50.6733 408.09 50.832 407.782 50.944C407.474 51.056 407.155 51.112 406.823 51.112ZM422.261 45.974C422.261 46.7253 422.14 47.409 421.897 48.025C421.659 48.641 421.321 49.1707 420.882 49.614C420.444 50.0527 419.919 50.3933 419.307 50.636C418.696 50.8787 418.017 51 417.27 51H413.49V40.948H417.27C418.017 40.948 418.696 41.0693 419.307 41.312C419.919 41.5547 420.444 41.8977 420.882 42.341C421.321 42.7797 421.659 43.3093 421.897 43.93C422.14 44.546 422.261 45.2273 422.261 45.974ZM420.735 45.974C420.735 45.3767 420.654 44.8423 420.49 44.371C420.327 43.895 420.094 43.4937 419.79 43.167C419.492 42.8357 419.128 42.5837 418.698 42.411C418.274 42.2383 417.798 42.152 417.27 42.152H414.988V49.796H417.27C417.798 49.796 418.274 49.7097 418.698 49.537C419.128 49.3643 419.492 49.1147 419.79 48.788C420.094 48.4567 420.327 48.0553 420.49 47.584C420.654 47.1127 420.735 46.576 420.735 45.974ZM426.796 43.776C427.319 43.776 427.79 43.8623 428.21 44.035C428.635 44.203 428.994 44.448 429.288 44.77C429.587 45.0873 429.815 45.4723 429.974 45.925C430.133 46.373 430.212 46.877 430.212 47.437C430.212 47.997 430.133 48.5033 429.974 48.956C429.815 49.4087 429.587 49.7937 429.288 50.111C428.994 50.4283 428.635 50.6733 428.21 50.846C427.79 51.014 427.319 51.098 426.796 51.098C426.269 51.098 425.793 51.014 425.368 50.846C424.948 50.6733 424.589 50.4283 424.29 50.111C423.991 49.7937 423.76 49.4087 423.597 48.956C423.438 48.5033 423.359 47.997 423.359 47.437C423.359 46.877 423.438 46.373 423.597 45.925C423.76 45.4723 423.991 45.0873 424.29 44.77C424.589 44.448 424.948 44.203 425.368 44.035C425.793 43.8623 426.269 43.776 426.796 43.776ZM426.796 50.034C427.468 50.034 427.97 49.8077 428.301 49.355C428.632 48.9023 428.798 48.2653 428.798 47.444C428.798 46.6227 428.632 45.9857 428.301 45.533C427.97 45.0757 427.468 44.847 426.796 44.847C426.115 44.847 425.606 45.0757 425.27 45.533C424.939 45.9857 424.773 46.6227 424.773 47.444C424.773 48.2653 424.939 48.9023 425.27 49.355C425.606 49.8077 426.115 50.034 426.796 50.034ZM436.72 45.218C436.678 45.2693 436.636 45.3113 436.594 45.344C436.557 45.372 436.501 45.386 436.426 45.386C436.351 45.386 436.272 45.358 436.188 45.302C436.109 45.2413 436.006 45.1783 435.88 45.113C435.759 45.043 435.609 44.98 435.432 44.924C435.259 44.8633 435.045 44.833 434.788 44.833C434.452 44.833 434.156 44.8937 433.899 45.015C433.642 45.1363 433.428 45.309 433.255 45.533C433.087 45.757 432.959 46.03 432.87 46.352C432.781 46.674 432.737 47.0357 432.737 47.437C432.737 47.8523 432.784 48.2233 432.877 48.55C432.97 48.872 433.103 49.145 433.276 49.369C433.449 49.5883 433.659 49.7563 433.906 49.873C434.153 49.985 434.429 50.041 434.732 50.041C435.026 50.041 435.269 50.006 435.46 49.936C435.651 49.8613 435.81 49.782 435.936 49.698C436.062 49.614 436.167 49.537 436.251 49.467C436.335 49.3923 436.421 49.355 436.51 49.355C436.622 49.355 436.708 49.397 436.769 49.481L437.161 49.985C436.998 50.1857 436.813 50.356 436.608 50.496C436.407 50.636 436.193 50.7503 435.964 50.839C435.735 50.9277 435.495 50.993 435.243 51.035C434.996 51.077 434.744 51.098 434.487 51.098C434.044 51.098 433.628 51.0163 433.241 50.853C432.858 50.6897 432.525 50.4517 432.24 50.139C431.96 49.8263 431.738 49.4437 431.575 48.991C431.412 48.5337 431.33 48.0157 431.33 47.437C431.33 46.9097 431.402 46.422 431.547 45.974C431.696 45.526 431.913 45.141 432.198 44.819C432.487 44.4923 432.842 44.238 433.262 44.056C433.682 43.8693 434.163 43.776 434.704 43.776C435.213 43.776 435.661 43.8577 436.048 44.021C436.435 44.1843 436.781 44.4153 437.084 44.714L436.72 45.218ZM444.35 43.888V51H443.531C443.344 51 443.223 50.909 443.167 50.727L443.069 50.013C442.915 50.1763 442.754 50.3257 442.586 50.461C442.418 50.5963 442.238 50.713 442.047 50.811C441.856 50.9043 441.653 50.9767 441.438 51.028C441.223 51.084 440.992 51.112 440.745 51.112C440.353 51.112 440.008 51.0467 439.709 50.916C439.415 50.7853 439.168 50.6033 438.967 50.37C438.766 50.132 438.615 49.8473 438.512 49.516C438.409 49.1847 438.358 48.8183 438.358 48.417V43.888H439.73V48.417C439.73 48.9257 439.847 49.3223 440.08 49.607C440.313 49.887 440.67 50.027 441.151 50.027C441.501 50.027 441.828 49.9453 442.131 49.782C442.434 49.614 442.719 49.3853 442.985 49.096V43.888H444.35ZM446.255 51V43.888H447.074C447.266 43.888 447.385 43.979 447.431 44.161L447.529 44.84C447.791 44.5273 448.08 44.273 448.397 44.077C448.719 43.8763 449.095 43.776 449.524 43.776C449.996 43.776 450.378 43.9067 450.672 44.168C450.966 44.4247 451.181 44.7747 451.316 45.218C451.419 44.966 451.552 44.749 451.715 44.567C451.879 44.385 452.061 44.2357 452.261 44.119C452.462 44.0023 452.674 43.916 452.898 43.86C453.127 43.804 453.358 43.776 453.591 43.776C453.969 43.776 454.305 43.8367 454.599 43.958C454.898 44.0747 455.15 44.2473 455.355 44.476C455.561 44.7047 455.717 44.987 455.824 45.323C455.932 45.659 455.985 46.0417 455.985 46.471V51H454.613V46.471C454.613 45.939 454.497 45.5377 454.263 45.267C454.035 44.9963 453.699 44.861 453.255 44.861C453.059 44.861 452.873 44.896 452.695 44.966C452.518 45.0313 452.362 45.1317 452.226 45.267C452.096 45.4023 451.991 45.5703 451.911 45.771C451.837 45.9717 451.799 46.205 451.799 46.471V51H450.427V46.471C450.427 45.9203 450.318 45.5143 450.098 45.253C449.879 44.9917 449.557 44.861 449.132 44.861C448.838 44.861 448.565 44.938 448.313 45.092C448.061 45.246 447.83 45.456 447.62 45.722V51H446.255ZM462.533 46.653C462.533 46.3823 462.493 46.1327 462.414 45.904C462.339 45.6753 462.227 45.477 462.078 45.309C461.928 45.141 461.746 45.0103 461.532 44.917C461.317 44.8237 461.07 44.777 460.79 44.777C460.216 44.777 459.763 44.9427 459.432 45.274C459.105 45.6053 458.897 46.065 458.809 46.653H462.533ZM463.66 49.985C463.492 50.181 463.298 50.3513 463.079 50.496C462.859 50.636 462.626 50.7503 462.379 50.839C462.131 50.9277 461.875 50.993 461.609 51.035C461.347 51.077 461.088 51.098 460.832 51.098C460.342 51.098 459.887 51.0163 459.467 50.853C459.051 50.685 458.69 50.4423 458.382 50.125C458.078 49.803 457.84 49.4063 457.668 48.935C457.5 48.459 457.416 47.913 457.416 47.297C457.416 46.8023 457.493 46.3427 457.647 45.918C457.801 45.4887 458.02 45.1153 458.305 44.798C458.594 44.4807 458.946 44.231 459.362 44.049C459.777 43.867 460.244 43.776 460.762 43.776C461.196 43.776 461.595 43.8483 461.959 43.993C462.327 44.133 462.645 44.3383 462.911 44.609C463.177 44.8797 463.384 45.2133 463.534 45.61C463.688 46.0067 463.765 46.4593 463.765 46.968C463.765 47.178 463.741 47.3203 463.695 47.395C463.648 47.465 463.562 47.5 463.436 47.5H458.774C458.788 47.9247 458.848 48.2957 458.956 48.613C459.063 48.9257 459.21 49.187 459.397 49.397C459.588 49.607 459.814 49.7633 460.076 49.866C460.337 49.9687 460.629 50.02 460.951 50.02C461.254 50.02 461.515 49.985 461.735 49.915C461.959 49.845 462.15 49.7703 462.309 49.691C462.472 49.607 462.607 49.53 462.715 49.46C462.827 49.39 462.925 49.355 463.009 49.355C463.121 49.355 463.207 49.397 463.268 49.481L463.66 49.985ZM466.513 44.875C466.667 44.7117 466.828 44.5623 466.996 44.427C467.164 44.2917 467.341 44.1773 467.528 44.084C467.719 43.986 467.922 43.9113 468.137 43.86C468.356 43.804 468.59 43.776 468.837 43.776C469.229 43.776 469.572 43.8413 469.866 43.972C470.165 44.1027 470.414 44.287 470.615 44.525C470.816 44.7583 470.967 45.0407 471.07 45.372C471.173 45.7033 471.224 46.0697 471.224 46.471V51H469.852V46.471C469.852 45.9623 469.735 45.568 469.502 45.288C469.269 45.0033 468.912 44.861 468.431 44.861C468.081 44.861 467.752 44.945 467.444 45.113C467.141 45.2763 466.858 45.5003 466.597 45.785V51H465.232V43.888H466.051C466.242 43.888 466.361 43.979 466.408 44.161L466.513 44.875ZM475.196 51.112C474.622 51.112 474.179 50.951 473.866 50.629C473.558 50.307 473.404 49.8473 473.404 49.25V44.994H472.578C472.499 44.994 472.431 44.9707 472.375 44.924C472.324 44.8727 472.298 44.798 472.298 44.7V44.147L473.453 43.986L473.761 41.865C473.78 41.7857 473.815 41.725 473.866 41.683C473.922 41.6363 473.992 41.613 474.076 41.613H474.769V44H476.785V44.994H474.769V49.159C474.769 49.439 474.837 49.649 474.972 49.789C475.112 49.9243 475.29 49.992 475.504 49.992C475.63 49.992 475.738 49.9757 475.826 49.943C475.92 49.9103 475.999 49.8753 476.064 49.838C476.13 49.796 476.186 49.7587 476.232 49.726C476.279 49.6933 476.321 49.677 476.358 49.677C476.405 49.677 476.44 49.6887 476.463 49.712C476.491 49.7307 476.519 49.7633 476.547 49.81L476.953 50.468C476.729 50.6733 476.463 50.832 476.155 50.944C475.847 51.056 475.528 51.112 475.196 51.112ZM482.235 45.113C482.198 45.1737 482.158 45.218 482.116 45.246C482.074 45.2693 482.021 45.281 481.955 45.281C481.881 45.281 481.797 45.2553 481.703 45.204C481.615 45.1527 481.505 45.0967 481.374 45.036C481.248 44.9753 481.099 44.9193 480.926 44.868C480.754 44.8167 480.548 44.791 480.31 44.791C480.114 44.791 479.935 44.8167 479.771 44.868C479.613 44.9147 479.477 44.9823 479.365 45.071C479.253 45.155 479.167 45.2577 479.106 45.379C479.046 45.4957 479.015 45.6217 479.015 45.757C479.015 45.9343 479.067 46.0813 479.169 46.198C479.277 46.3147 479.414 46.415 479.582 46.499C479.755 46.583 479.949 46.66 480.163 46.73C480.383 46.7953 480.604 46.8653 480.828 46.94C481.057 47.0147 481.279 47.101 481.493 47.199C481.713 47.2923 481.906 47.4113 482.074 47.556C482.247 47.696 482.385 47.8663 482.487 48.067C482.595 48.2677 482.648 48.5127 482.648 48.802C482.648 49.1333 482.588 49.4413 482.466 49.726C482.35 50.006 482.175 50.2487 481.941 50.454C481.713 50.6593 481.428 50.8203 481.087 50.937C480.747 51.0537 480.357 51.112 479.918 51.112C479.428 51.112 478.976 51.0303 478.56 50.867C478.145 50.7037 477.797 50.496 477.517 50.244L477.839 49.719C477.877 49.6537 477.923 49.6047 477.979 49.572C478.035 49.5347 478.11 49.516 478.203 49.516C478.292 49.516 478.383 49.5487 478.476 49.614C478.57 49.6793 478.682 49.7517 478.812 49.831C478.943 49.9057 479.102 49.9757 479.288 50.041C479.475 50.1017 479.708 50.132 479.988 50.132C480.222 50.132 480.425 50.104 480.597 50.048C480.77 49.9873 480.912 49.908 481.024 49.81C481.141 49.7073 481.227 49.5907 481.283 49.46C481.339 49.3293 481.367 49.1917 481.367 49.047C481.367 48.8603 481.314 48.7063 481.206 48.585C481.104 48.459 480.966 48.3517 480.793 48.263C480.625 48.1743 480.432 48.0973 480.212 48.032C479.993 47.9667 479.769 47.8967 479.54 47.822C479.312 47.7473 479.088 47.661 478.868 47.563C478.649 47.465 478.453 47.3413 478.28 47.192C478.112 47.0427 477.975 46.8607 477.867 46.646C477.765 46.4313 477.713 46.17 477.713 45.862C477.713 45.5867 477.769 45.323 477.881 45.071C477.998 44.819 478.164 44.5973 478.378 44.406C478.598 44.2147 478.866 44.063 479.183 43.951C479.505 43.8343 479.872 43.776 480.282 43.776C480.754 43.776 481.178 43.8507 481.556 44C481.939 44.1493 482.266 44.3547 482.536 44.616L482.235 45.113Z" fill="black"/>
</svg>
