<svg width="473" height="54" viewBox="0 0 473 54" fill="none" xmlns="http://www.w3.org/2000/svg">
<circle cx="23.5" cy="12.5" r="12.5" fill="#326FBB"/>
<line x1="40" y1="12.5" x2="202" y2="12.5" stroke="#326FBB"/>
<path d="M26.09 16.32V17H22.25V16.32H23.785V11.435C23.785 11.2883 23.79 11.14 23.8 10.99L22.525 12.085C22.4817 12.1217 22.4383 12.145 22.395 12.155C22.3517 12.1617 22.3117 12.1617 22.275 12.155C22.2383 12.1483 22.2033 12.135 22.17 12.115C22.14 12.095 22.1167 12.0733 22.1 12.05L21.82 11.665L23.955 9.82H24.68V16.32H26.09Z" fill="white"/>
<circle cx="218.5" cy="12.5" r="12.5" fill="#CCCCCC"/>
<line x1="235" y1="12.5" x2="397" y2="12.5" stroke="#CCCCCC"/>
<path d="M220.935 16.155C221.032 16.155 221.108 16.1833 221.165 16.24C221.222 16.2967 221.25 16.37 221.25 16.46V17H216.47V16.695C216.47 16.6317 216.483 16.5667 216.51 16.5C216.537 16.4333 216.578 16.3717 216.635 16.315L218.93 14.01C219.12 13.8167 219.293 13.6317 219.45 13.455C219.607 13.275 219.74 13.095 219.85 12.915C219.96 12.735 220.045 12.5533 220.105 12.37C220.165 12.1833 220.195 11.985 220.195 11.775C220.195 11.565 220.162 11.3817 220.095 11.225C220.028 11.065 219.937 10.9333 219.82 10.83C219.707 10.7267 219.572 10.65 219.415 10.6C219.258 10.5467 219.09 10.52 218.91 10.52C218.727 10.52 218.558 10.5467 218.405 10.6C218.252 10.6533 218.115 10.7283 217.995 10.825C217.878 10.9183 217.78 11.03 217.7 11.16C217.62 11.29 217.563 11.4333 217.53 11.59C217.49 11.7067 217.435 11.785 217.365 11.825C217.298 11.8617 217.203 11.8717 217.08 11.855L216.615 11.775C216.662 11.4483 216.752 11.16 216.885 10.91C217.022 10.6567 217.192 10.445 217.395 10.275C217.602 10.105 217.837 9.97667 218.1 9.89C218.363 9.8 218.648 9.755 218.955 9.755C219.258 9.755 219.542 9.8 219.805 9.89C220.068 9.98 220.297 10.1117 220.49 10.285C220.683 10.455 220.835 10.6633 220.945 10.91C221.055 11.1567 221.11 11.4367 221.11 11.75C221.11 12.0167 221.07 12.265 220.99 12.495C220.91 12.7217 220.802 12.9383 220.665 13.145C220.528 13.3517 220.37 13.5533 220.19 13.75C220.013 13.9467 219.825 14.145 219.625 14.345L217.735 16.275C217.868 16.2383 218.003 16.21 218.14 16.19C218.277 16.1667 218.408 16.155 218.535 16.155H220.935Z" fill="white"/>
<circle cx="413.5" cy="12.5" r="12.5" fill="#CCCCCC"/>
<path d="M411.65 11.775C411.697 11.4483 411.787 11.16 411.92 10.91C412.053 10.6567 412.222 10.445 412.425 10.275C412.632 10.105 412.867 9.97667 413.13 9.89C413.397 9.8 413.683 9.755 413.99 9.755C414.293 9.755 414.573 9.79833 414.83 9.885C415.087 9.97167 415.307 10.095 415.49 10.255C415.677 10.415 415.822 10.6083 415.925 10.835C416.028 11.0617 416.08 11.3133 416.08 11.59C416.08 11.8167 416.05 12.02 415.99 12.2C415.933 12.3767 415.85 12.5317 415.74 12.665C415.633 12.7983 415.503 12.9117 415.35 13.005C415.197 13.0983 415.025 13.175 414.835 13.235C415.302 13.355 415.652 13.5617 415.885 13.855C416.122 14.145 416.24 14.5083 416.24 14.945C416.24 15.275 416.177 15.5717 416.05 15.835C415.927 16.0983 415.757 16.3233 415.54 16.51C415.323 16.6933 415.07 16.835 414.78 16.935C414.493 17.0317 414.185 17.08 413.855 17.08C413.475 17.08 413.15 17.0333 412.88 16.94C412.61 16.8433 412.382 16.7117 412.195 16.545C412.008 16.3783 411.855 16.1817 411.735 15.955C411.615 15.725 411.513 15.4767 411.43 15.21L411.815 15.05C411.915 15.0067 412.012 14.995 412.105 15.015C412.202 15.035 412.272 15.09 412.315 15.18C412.358 15.2733 412.412 15.385 412.475 15.515C412.542 15.645 412.632 15.77 412.745 15.89C412.858 16.01 413.002 16.1117 413.175 16.195C413.352 16.2783 413.575 16.32 413.845 16.32C414.095 16.32 414.313 16.28 414.5 16.2C414.69 16.1167 414.847 16.01 414.97 15.88C415.097 15.75 415.192 15.605 415.255 15.445C415.318 15.285 415.35 15.1267 415.35 14.97C415.35 14.7767 415.325 14.6 415.275 14.44C415.225 14.28 415.132 14.1417 414.995 14.025C414.858 13.9083 414.67 13.8167 414.43 13.75C414.193 13.6833 413.888 13.65 413.515 13.65V13.005C413.822 13.0017 414.082 12.9683 414.295 12.905C414.512 12.8417 414.687 12.755 414.82 12.645C414.957 12.535 415.055 12.4033 415.115 12.25C415.178 12.0967 415.21 11.9267 415.21 11.74C415.21 11.5333 415.177 11.3533 415.11 11.2C415.047 11.0467 414.958 10.92 414.845 10.82C414.732 10.72 414.597 10.645 414.44 10.595C414.287 10.545 414.12 10.52 413.94 10.52C413.76 10.52 413.592 10.5467 413.435 10.6C413.282 10.6533 413.145 10.7283 413.025 10.825C412.908 10.9183 412.81 11.03 412.73 11.16C412.65 11.29 412.593 11.4333 412.56 11.59C412.517 11.7067 412.462 11.785 412.395 11.825C412.332 11.8617 412.238 11.8717 412.115 11.855L411.65 11.775Z" fill="white"/>
<path d="M6.44 42.586C6.39333 42.6653 6.34433 42.7237 6.293 42.761C6.24167 42.7983 6.17633 42.817 6.097 42.817C6.013 42.817 5.91733 42.7797 5.81 42.705C5.70267 42.6257 5.56733 42.5393 5.404 42.446C5.24533 42.348 5.054 42.2617 4.83 42.187C4.606 42.1077 4.33767 42.068 4.025 42.068C3.731 42.068 3.472 42.1077 3.248 42.187C3.02867 42.2617 2.84433 42.3667 2.695 42.502C2.54567 42.6327 2.43133 42.789 2.352 42.971C2.27733 43.1483 2.24 43.342 2.24 43.552C2.24 43.8227 2.30767 44.0467 2.443 44.224C2.583 44.4013 2.765 44.553 2.989 44.679C3.213 44.805 3.46733 44.9147 3.752 45.008C4.03667 45.1013 4.32833 45.1993 4.627 45.302C4.92567 45.4 5.21733 45.5143 5.502 45.645C5.78667 45.7757 6.041 45.9413 6.265 46.142C6.489 46.338 6.66867 46.5807 6.804 46.87C6.944 47.1547 7.014 47.5047 7.014 47.92C7.014 48.3633 6.937 48.7787 6.783 49.166C6.63367 49.5533 6.41433 49.8917 6.125 50.181C5.83567 50.4703 5.47867 50.699 5.054 50.867C4.634 51.0303 4.15567 51.112 3.619 51.112C3.297 51.112 2.98433 51.0793 2.681 51.014C2.37767 50.9533 2.09067 50.867 1.82 50.755C1.54933 50.6383 1.295 50.5007 1.057 50.342C0.823667 50.1787 0.613667 49.9967 0.427 49.796L0.854 49.082C0.896 49.026 0.945 48.9793 1.001 48.942C1.06167 48.9047 1.12933 48.886 1.204 48.886C1.302 48.886 1.414 48.9373 1.54 49.04C1.67067 49.1427 1.82933 49.257 2.016 49.383C2.20733 49.5043 2.43367 49.6163 2.695 49.719C2.961 49.8217 3.283 49.873 3.661 49.873C3.969 49.873 4.24433 49.8333 4.487 49.754C4.72967 49.67 4.93267 49.5533 5.096 49.404C5.264 49.25 5.39233 49.0657 5.481 48.851C5.56967 48.6363 5.614 48.3983 5.614 48.137C5.614 47.843 5.54633 47.6027 5.411 47.416C5.27567 47.2293 5.096 47.073 4.872 46.947C4.648 46.821 4.39367 46.7137 4.109 46.625C3.82433 46.5363 3.53267 46.4453 3.234 46.352C2.93533 46.254 2.64367 46.142 2.359 46.016C2.07433 45.89 1.82 45.7267 1.596 45.526C1.372 45.3207 1.19233 45.0663 1.057 44.763C0.921667 44.455 0.854 44.077 0.854 43.629C0.854 43.2697 0.924 42.922 1.064 42.586C1.204 42.25 1.407 41.9537 1.673 41.697C1.94367 41.4357 2.275 41.228 2.667 41.074C3.059 40.9153 3.507 40.836 4.011 40.836C4.57567 40.836 5.09367 40.927 5.565 41.109C6.041 41.2863 6.454 41.543 6.804 41.879L6.44 42.586ZM9.94755 43.888V51H8.58255V43.888H9.94755ZM10.2065 41.69C10.2065 41.816 10.1809 41.9373 10.1295 42.054C10.0782 42.166 10.0082 42.2663 9.91955 42.355C9.83555 42.439 9.73521 42.5067 9.61855 42.558C9.50188 42.6047 9.38055 42.628 9.25455 42.628C9.12855 42.628 9.00955 42.6047 8.89755 42.558C8.78555 42.5067 8.68521 42.439 8.59655 42.355C8.51255 42.2663 8.44488 42.166 8.39355 42.054C8.34688 41.9373 8.32355 41.816 8.32355 41.69C8.32355 41.5593 8.34688 41.438 8.39355 41.326C8.44488 41.2093 8.51255 41.109 8.59655 41.025C8.68521 40.9363 8.78555 40.8687 8.89755 40.822C9.00955 40.7707 9.12855 40.745 9.25455 40.745C9.38055 40.745 9.50188 40.7707 9.61855 40.822C9.73521 40.8687 9.83555 40.9363 9.91955 41.025C10.0082 41.109 10.0782 41.2093 10.1295 41.326C10.1809 41.438 10.2065 41.5593 10.2065 41.69ZM14.4228 47.451C14.6655 47.451 14.8778 47.4183 15.0598 47.353C15.2465 47.2877 15.4005 47.1967 15.5218 47.08C15.6478 46.9587 15.7412 46.814 15.8018 46.646C15.8672 46.478 15.8998 46.2937 15.8998 46.093C15.8998 45.6823 15.7738 45.3557 15.5218 45.113C15.2745 44.8657 14.9082 44.742 14.4228 44.742C13.9422 44.742 13.5758 44.8657 13.3238 45.113C13.0765 45.3557 12.9528 45.6823 12.9528 46.093C12.9528 46.2937 12.9832 46.478 13.0438 46.646C13.1092 46.8093 13.2025 46.9517 13.3238 47.073C13.4498 47.1897 13.6038 47.283 13.7858 47.353C13.9725 47.4183 14.1848 47.451 14.4228 47.451ZM16.5998 51.371C16.5998 51.203 16.5532 51.07 16.4598 50.972C16.3665 50.8693 16.2382 50.79 16.0748 50.734C15.9162 50.6733 15.7295 50.6313 15.5148 50.608C15.3002 50.58 15.0738 50.559 14.8358 50.545C14.6025 50.531 14.3622 50.5193 14.1148 50.51C13.8675 50.496 13.6295 50.4727 13.4008 50.44C13.1582 50.5613 12.9575 50.7083 12.7988 50.881C12.6448 51.0537 12.5678 51.2567 12.5678 51.49C12.5678 51.6393 12.6052 51.7793 12.6798 51.91C12.7592 52.0407 12.8782 52.1527 13.0368 52.246C13.2002 52.344 13.4032 52.4187 13.6458 52.47C13.8932 52.526 14.1872 52.554 14.5278 52.554C14.8638 52.554 15.1602 52.5237 15.4168 52.463C15.6735 52.407 15.8882 52.3253 16.0608 52.218C16.2382 52.1153 16.3712 51.9917 16.4598 51.847C16.5532 51.7023 16.5998 51.5437 16.5998 51.371ZM17.9858 44.154V44.665C17.9858 44.833 17.8808 44.938 17.6708 44.98L16.9078 45.092C16.9732 45.2367 17.0245 45.3907 17.0618 45.554C17.0992 45.7127 17.1178 45.8807 17.1178 46.058C17.1178 46.408 17.0502 46.7253 16.9148 47.01C16.7795 47.29 16.5928 47.5303 16.3548 47.731C16.1168 47.9317 15.8322 48.0857 15.5008 48.193C15.1742 48.3003 14.8148 48.354 14.4228 48.354C14.1008 48.354 13.7998 48.319 13.5198 48.249C13.3798 48.333 13.2725 48.4263 13.1978 48.529C13.1278 48.627 13.0928 48.725 13.0928 48.823C13.0928 48.9863 13.1605 49.1077 13.2958 49.187C13.4358 49.2663 13.6155 49.3247 13.8348 49.362C14.0588 49.3947 14.3132 49.4157 14.5978 49.425C14.8872 49.4343 15.1788 49.4507 15.4728 49.474C15.7715 49.4927 16.0632 49.53 16.3478 49.586C16.6372 49.6373 16.8915 49.7237 17.1108 49.845C17.3348 49.9617 17.5145 50.125 17.6498 50.335C17.7898 50.5403 17.8598 50.8087 17.8598 51.14C17.8598 51.448 17.7828 51.7467 17.6288 52.036C17.4795 52.3253 17.2602 52.582 16.9708 52.806C16.6815 53.03 16.3292 53.2097 15.9138 53.345C15.4985 53.4803 15.0272 53.548 14.4998 53.548C13.9725 53.548 13.5128 53.4967 13.1208 53.394C12.7335 53.2913 12.4092 53.1537 12.1478 52.981C11.8912 52.8083 11.6975 52.6077 11.5668 52.379C11.4408 52.1503 11.3778 51.9123 11.3778 51.665C11.3778 51.3197 11.4852 51.028 11.6998 50.79C11.9145 50.5473 12.2108 50.3583 12.5888 50.223C12.3835 50.1297 12.2202 50.0037 12.0988 49.845C11.9775 49.6817 11.9168 49.467 11.9168 49.201C11.9168 49.0983 11.9355 48.9933 11.9728 48.886C12.0102 48.774 12.0662 48.6643 12.1408 48.557C12.2202 48.445 12.3158 48.34 12.4278 48.242C12.5445 48.144 12.6775 48.0553 12.8268 47.976C12.4768 47.78 12.2015 47.521 12.0008 47.199C11.8002 46.8723 11.6998 46.492 11.6998 46.058C11.6998 45.708 11.7675 45.393 11.9028 45.113C12.0382 44.833 12.2248 44.5927 12.4628 44.392C12.7055 44.1913 12.9925 44.0373 13.3238 43.93C13.6598 43.8227 14.0262 43.769 14.4228 43.769C15.0388 43.769 15.5685 43.8973 16.0118 44.154H17.9858ZM20.5193 44.875C20.6733 44.7117 20.8343 44.5623 21.0023 44.427C21.1703 44.2917 21.3476 44.1773 21.5343 44.084C21.7256 43.986 21.9286 43.9113 22.1433 43.86C22.3626 43.804 22.596 43.776 22.8433 43.776C23.2353 43.776 23.5783 43.8413 23.8723 43.972C24.171 44.1027 24.4206 44.287 24.6213 44.525C24.822 44.7583 24.9736 45.0407 25.0763 45.372C25.179 45.7033 25.2303 46.0697 25.2303 46.471V51H23.8583V46.471C23.8583 45.9623 23.7416 45.568 23.5083 45.288C23.275 45.0033 22.918 44.861 22.4373 44.861C22.0873 44.861 21.7583 44.945 21.4503 45.113C21.147 45.2763 20.8646 45.5003 20.6033 45.785V51H19.2383V43.888H20.0573C20.2486 43.888 20.3676 43.979 20.4143 44.161L20.5193 44.875ZM34.8133 49.803C35.2146 49.803 35.574 49.7353 35.8913 49.6C36.2086 49.4647 36.477 49.2757 36.6963 49.033C36.9156 48.7857 37.0836 48.494 37.2003 48.158C37.317 47.8173 37.3753 47.4417 37.3753 47.031V40.948H38.8593V47.031C38.8593 47.619 38.766 48.1627 38.5793 48.662C38.3926 49.1613 38.1243 49.593 37.7743 49.957C37.4243 50.321 36.9996 50.6057 36.5003 50.811C36.001 51.0163 35.4386 51.119 34.8133 51.119C34.188 51.119 33.6256 51.0163 33.1263 50.811C32.627 50.6057 32.2023 50.321 31.8523 49.957C31.5023 49.593 31.234 49.1613 31.0473 48.662C30.8606 48.1627 30.7673 47.619 30.7673 47.031V40.948H32.2583V47.024C32.2583 47.4347 32.3143 47.8103 32.4263 48.151C32.543 48.4917 32.711 48.7857 32.9303 49.033C33.1496 49.2757 33.418 49.4647 33.7353 49.6C34.0526 49.7353 34.412 49.803 34.8133 49.803ZM42.0818 49.25C42.3058 49.544 42.5461 49.7493 42.8028 49.866C43.0641 49.9827 43.3558 50.041 43.6778 50.041C44.3031 50.041 44.7861 49.817 45.1268 49.369C45.4721 48.9163 45.6448 48.2583 45.6448 47.395C45.6448 46.9423 45.6051 46.5573 45.5258 46.24C45.4511 45.918 45.3391 45.6567 45.1898 45.456C45.0451 45.2507 44.8655 45.1013 44.6508 45.008C44.4361 44.91 44.1935 44.861 43.9228 44.861C43.5261 44.861 43.1808 44.9497 42.8868 45.127C42.5975 45.3043 42.3291 45.5563 42.0818 45.883V49.25ZM42.0118 44.952C42.1611 44.7747 42.3198 44.6137 42.4878 44.469C42.6605 44.3197 42.8448 44.1937 43.0408 44.091C43.2368 43.9837 43.4445 43.902 43.6638 43.846C43.8878 43.7853 44.1258 43.755 44.3778 43.755C44.7838 43.755 45.1501 43.8343 45.4768 43.993C45.8081 44.1517 46.0905 44.385 46.3238 44.693C46.5571 45.001 46.7368 45.3813 46.8628 45.834C46.9935 46.2867 47.0588 46.807 47.0588 47.395C47.0588 47.9223 46.9865 48.4123 46.8418 48.865C46.7018 49.313 46.4988 49.7027 46.2328 50.034C45.9715 50.3653 45.6495 50.6267 45.2668 50.818C44.8888 51.0047 44.4618 51.098 43.9858 51.098C43.5611 51.098 43.1971 51.028 42.8938 50.888C42.5905 50.748 42.3198 50.552 42.0818 50.3V53.387H40.7168V43.888H41.5358C41.7271 43.888 41.8461 43.979 41.8928 44.161L42.0118 44.952Z" fill="black"/>
<path d="M184.26 48.844C184.344 48.844 184.416 48.8767 184.477 48.942L185.065 49.586C184.654 50.0713 184.153 50.447 183.56 50.713C182.972 50.979 182.263 51.112 181.432 51.112C180.704 51.112 180.044 50.986 179.451 50.734C178.863 50.482 178.359 50.1297 177.939 49.677C177.524 49.2243 177.202 48.683 176.973 48.053C176.744 47.423 176.63 46.73 176.63 45.974C176.63 45.218 176.749 44.525 176.987 43.895C177.23 43.265 177.568 42.7237 178.002 42.271C178.436 41.8183 178.954 41.466 179.556 41.214C180.163 40.962 180.832 40.836 181.565 40.836C182.279 40.836 182.914 40.9527 183.469 41.186C184.024 41.4193 184.507 41.7297 184.918 42.117L184.428 42.81C184.395 42.8613 184.353 42.9033 184.302 42.936C184.255 42.9687 184.192 42.985 184.113 42.985C184.024 42.985 183.919 42.9407 183.798 42.852C183.681 42.7633 183.525 42.6653 183.329 42.558C183.138 42.446 182.9 42.3457 182.615 42.257C182.33 42.1683 181.976 42.124 181.551 42.124C181.052 42.124 180.594 42.2127 180.179 42.39C179.764 42.5627 179.404 42.8147 179.101 43.146C178.802 43.4727 178.569 43.8763 178.401 44.357C178.238 44.833 178.156 45.372 178.156 45.974C178.156 46.5853 178.242 47.129 178.415 47.605C178.588 48.081 178.826 48.4847 179.129 48.816C179.432 49.1473 179.789 49.3993 180.2 49.572C180.611 49.7447 181.054 49.831 181.53 49.831C181.819 49.831 182.078 49.8147 182.307 49.782C182.54 49.7447 182.753 49.691 182.944 49.621C183.14 49.551 183.324 49.4623 183.497 49.355C183.67 49.243 183.84 49.11 184.008 48.956C184.045 48.9233 184.085 48.8977 184.127 48.879C184.169 48.8557 184.213 48.844 184.26 48.844ZM187.53 45.253C187.759 44.7863 188.034 44.42 188.356 44.154C188.678 43.888 189.066 43.755 189.518 43.755C189.672 43.755 189.817 43.7737 189.952 43.811C190.092 43.8437 190.214 43.895 190.316 43.965L190.225 44.994C190.193 45.12 190.116 45.183 189.994 45.183C189.929 45.183 189.831 45.1713 189.7 45.148C189.57 45.12 189.43 45.106 189.28 45.106C189.061 45.106 188.867 45.1387 188.699 45.204C188.531 45.2647 188.38 45.358 188.244 45.484C188.114 45.6053 187.997 45.757 187.894 45.939C187.792 46.1163 187.696 46.3193 187.607 46.548V51H186.242V43.888H187.026C187.176 43.888 187.276 43.916 187.327 43.972C187.383 44.0233 187.423 44.1167 187.446 44.252L187.53 45.253ZM195.82 46.653C195.82 46.3823 195.781 46.1327 195.701 45.904C195.627 45.6753 195.515 45.477 195.365 45.309C195.216 45.141 195.034 45.0103 194.819 44.917C194.605 44.8237 194.357 44.777 194.077 44.777C193.503 44.777 193.051 44.9427 192.719 45.274C192.393 45.6053 192.185 46.065 192.096 46.653H195.82ZM196.947 49.985C196.779 50.181 196.586 50.3513 196.366 50.496C196.147 50.636 195.914 50.7503 195.666 50.839C195.419 50.9277 195.162 50.993 194.896 51.035C194.635 51.077 194.376 51.098 194.119 51.098C193.629 51.098 193.174 51.0163 192.754 50.853C192.339 50.685 191.977 50.4423 191.669 50.125C191.366 49.803 191.128 49.4063 190.955 48.935C190.787 48.459 190.703 47.913 190.703 47.297C190.703 46.8023 190.78 46.3427 190.934 45.918C191.088 45.4887 191.308 45.1153 191.592 44.798C191.882 44.4807 192.234 44.231 192.649 44.049C193.065 43.867 193.531 43.776 194.049 43.776C194.483 43.776 194.882 43.8483 195.246 43.993C195.615 44.133 195.932 44.3383 196.198 44.609C196.464 44.8797 196.672 45.2133 196.821 45.61C196.975 46.0067 197.052 46.4593 197.052 46.968C197.052 47.178 197.029 47.3203 196.982 47.395C196.936 47.465 196.849 47.5 196.723 47.5H192.061C192.075 47.9247 192.136 48.2957 192.243 48.613C192.351 48.9257 192.498 49.187 192.684 49.397C192.876 49.607 193.102 49.7633 193.363 49.866C193.625 49.9687 193.916 50.02 194.238 50.02C194.542 50.02 194.803 49.985 195.022 49.915C195.246 49.845 195.438 49.7703 195.596 49.691C195.76 49.607 195.895 49.53 196.002 49.46C196.114 49.39 196.212 49.355 196.296 49.355C196.408 49.355 196.495 49.397 196.555 49.481L196.947 49.985ZM202.342 47.843C201.786 47.8617 201.315 47.906 200.928 47.976C200.54 48.0413 200.225 48.13 199.983 48.242C199.74 48.354 199.565 48.487 199.458 48.641C199.35 48.7903 199.297 48.9583 199.297 49.145C199.297 49.3223 199.325 49.4763 199.381 49.607C199.441 49.733 199.521 49.838 199.619 49.922C199.721 50.0013 199.84 50.0597 199.976 50.097C200.111 50.1343 200.258 50.153 200.417 50.153C200.627 50.153 200.818 50.132 200.991 50.09C201.168 50.048 201.334 49.9897 201.488 49.915C201.642 49.8357 201.789 49.74 201.929 49.628C202.069 49.516 202.206 49.3877 202.342 49.243V47.843ZM198.338 44.882C198.734 44.504 199.164 44.2217 199.626 44.035C200.092 43.8483 200.603 43.755 201.159 43.755C201.565 43.755 201.924 43.8227 202.237 43.958C202.549 44.0887 202.813 44.273 203.028 44.511C203.242 44.749 203.403 45.0337 203.511 45.365C203.623 45.6963 203.679 46.0627 203.679 46.464V51H203.07C202.934 51 202.832 50.979 202.762 50.937C202.692 50.8903 202.636 50.8063 202.594 50.685L202.447 50.062C202.265 50.23 202.085 50.3793 201.908 50.51C201.73 50.636 201.544 50.7457 201.348 50.839C201.156 50.9277 200.951 50.9953 200.732 51.042C200.512 51.0887 200.27 51.112 200.004 51.112C199.724 51.112 199.46 51.0747 199.213 51C198.97 50.9207 198.758 50.8017 198.576 50.643C198.394 50.4843 198.249 50.286 198.142 50.048C198.039 49.81 197.988 49.5323 197.988 49.215C197.988 48.935 198.062 48.6667 198.212 48.41C198.366 48.1487 198.613 47.9153 198.954 47.71C199.299 47.5047 199.747 47.3367 200.298 47.206C200.853 47.0753 201.534 47.0007 202.342 46.982V46.464C202.342 45.9273 202.227 45.526 201.999 45.26C201.77 44.994 201.434 44.861 200.991 44.861C200.692 44.861 200.44 44.8983 200.235 44.973C200.034 45.0477 199.859 45.1317 199.71 45.225C199.565 45.3137 199.437 45.3953 199.325 45.47C199.217 45.5447 199.105 45.582 198.989 45.582C198.895 45.582 198.814 45.5563 198.744 45.505C198.678 45.4537 198.625 45.393 198.583 45.323L198.338 44.882ZM207.636 51.112C207.062 51.112 206.619 50.951 206.306 50.629C205.998 50.307 205.844 49.8473 205.844 49.25V44.994H205.018C204.939 44.994 204.871 44.9707 204.815 44.924C204.764 44.8727 204.738 44.798 204.738 44.7V44.147L205.893 43.986L206.201 41.865C206.22 41.7857 206.255 41.725 206.306 41.683C206.362 41.6363 206.432 41.613 206.516 41.613H207.209V44H209.225V44.994H207.209V49.159C207.209 49.439 207.277 49.649 207.412 49.789C207.552 49.9243 207.73 49.992 207.944 49.992C208.07 49.992 208.178 49.9757 208.266 49.943C208.36 49.9103 208.439 49.8753 208.504 49.838C208.57 49.796 208.626 49.7587 208.672 49.726C208.719 49.6933 208.761 49.677 208.798 49.677C208.845 49.677 208.88 49.6887 208.903 49.712C208.931 49.7307 208.959 49.7633 208.987 49.81L209.393 50.468C209.169 50.6733 208.903 50.832 208.595 50.944C208.287 51.056 207.968 51.112 207.636 51.112ZM215.152 46.653C215.152 46.3823 215.113 46.1327 215.033 45.904C214.959 45.6753 214.847 45.477 214.697 45.309C214.548 45.141 214.366 45.0103 214.151 44.917C213.937 44.8237 213.689 44.777 213.409 44.777C212.835 44.777 212.383 44.9427 212.051 45.274C211.725 45.6053 211.517 46.065 211.428 46.653H215.152ZM216.279 49.985C216.111 50.181 215.918 50.3513 215.698 50.496C215.479 50.636 215.246 50.7503 214.998 50.839C214.751 50.9277 214.494 50.993 214.228 51.035C213.967 51.077 213.708 51.098 213.451 51.098C212.961 51.098 212.506 51.0163 212.086 50.853C211.671 50.685 211.309 50.4423 211.001 50.125C210.698 49.803 210.46 49.4063 210.287 48.935C210.119 48.459 210.035 47.913 210.035 47.297C210.035 46.8023 210.112 46.3427 210.266 45.918C210.42 45.4887 210.64 45.1153 210.924 44.798C211.214 44.4807 211.566 44.231 211.981 44.049C212.397 43.867 212.863 43.776 213.381 43.776C213.815 43.776 214.214 43.8483 214.578 43.993C214.947 44.133 215.264 44.3383 215.53 44.609C215.796 44.8797 216.004 45.2133 216.153 45.61C216.307 46.0067 216.384 46.4593 216.384 46.968C216.384 47.178 216.361 47.3203 216.314 47.395C216.268 47.465 216.181 47.5 216.055 47.5H211.393C211.407 47.9247 211.468 48.2957 211.575 48.613C211.683 48.9257 211.83 49.187 212.016 49.397C212.208 49.607 212.434 49.7633 212.695 49.866C212.957 49.9687 213.248 50.02 213.57 50.02C213.874 50.02 214.135 49.985 214.354 49.915C214.578 49.845 214.77 49.7703 214.928 49.691C215.092 49.607 215.227 49.53 215.334 49.46C215.446 49.39 215.544 49.355 215.628 49.355C215.74 49.355 215.827 49.397 215.887 49.481L216.279 49.985ZM224.718 46.121C225.096 46.121 225.427 46.072 225.712 45.974C226.001 45.876 226.241 45.7383 226.433 45.561C226.629 45.379 226.776 45.1643 226.874 44.917C226.972 44.665 227.021 44.3873 227.021 44.084C227.021 43.4727 226.829 42.992 226.447 42.642C226.069 42.292 225.492 42.117 224.718 42.117H223.164V46.121H224.718ZM224.718 40.948C225.362 40.948 225.922 41.0227 226.398 41.172C226.874 41.3213 227.268 41.5337 227.581 41.809C227.893 42.0797 228.124 42.4087 228.274 42.796C228.428 43.1833 228.505 43.6127 228.505 44.084C228.505 44.5553 228.423 44.9893 228.26 45.386C228.096 45.778 227.856 46.1163 227.539 46.401C227.221 46.6857 226.825 46.9073 226.349 47.066C225.877 47.22 225.334 47.297 224.718 47.297H223.164V51H221.673V40.948H224.718ZM231.034 45.253C231.263 44.7863 231.538 44.42 231.86 44.154C232.182 43.888 232.569 43.755 233.022 43.755C233.176 43.755 233.321 43.7737 233.456 43.811C233.596 43.8437 233.717 43.895 233.82 43.965L233.729 44.994C233.696 45.12 233.619 45.183 233.498 45.183C233.433 45.183 233.335 45.1713 233.204 45.148C233.073 45.12 232.933 45.106 232.784 45.106C232.565 45.106 232.371 45.1387 232.203 45.204C232.035 45.2647 231.883 45.358 231.748 45.484C231.617 45.6053 231.501 45.757 231.398 45.939C231.295 46.1163 231.2 46.3193 231.111 46.548V51H229.746V43.888H230.53C230.679 43.888 230.78 43.916 230.831 43.972C230.887 44.0233 230.927 44.1167 230.95 44.252L231.034 45.253ZM237.644 43.776C238.167 43.776 238.638 43.8623 239.058 44.035C239.483 44.203 239.842 44.448 240.136 44.77C240.435 45.0873 240.664 45.4723 240.822 45.925C240.981 46.373 241.06 46.877 241.06 47.437C241.06 47.997 240.981 48.5033 240.822 48.956C240.664 49.4087 240.435 49.7937 240.136 50.111C239.842 50.4283 239.483 50.6733 239.058 50.846C238.638 51.014 238.167 51.098 237.644 51.098C237.117 51.098 236.641 51.014 236.216 50.846C235.796 50.6733 235.437 50.4283 235.138 50.111C234.84 49.7937 234.609 49.4087 234.445 48.956C234.287 48.5033 234.207 47.997 234.207 47.437C234.207 46.877 234.287 46.373 234.445 45.925C234.609 45.4723 234.84 45.0873 235.138 44.77C235.437 44.448 235.796 44.203 236.216 44.035C236.641 43.8623 237.117 43.776 237.644 43.776ZM237.644 50.034C238.316 50.034 238.818 49.8077 239.149 49.355C239.481 48.9023 239.646 48.2653 239.646 47.444C239.646 46.6227 239.481 45.9857 239.149 45.533C238.818 45.0757 238.316 44.847 237.644 44.847C236.963 44.847 236.454 45.0757 236.118 45.533C235.787 45.9857 235.621 46.6227 235.621 47.444C235.621 48.2653 235.787 48.9023 236.118 49.355C236.454 49.8077 236.963 50.034 237.644 50.034ZM242.896 51V45.008L242.154 44.917C242.047 44.8937 241.958 44.8563 241.888 44.805C241.823 44.749 241.79 44.6697 241.79 44.567V44H242.896V43.657C242.896 43.223 242.964 42.824 243.099 42.46C243.239 42.0913 243.447 41.774 243.722 41.508C244.002 41.242 244.347 41.0367 244.758 40.892C245.173 40.7427 245.659 40.668 246.214 40.668C246.391 40.668 246.578 40.6797 246.774 40.703C246.97 40.7263 247.136 40.7613 247.271 40.808L247.222 41.522C247.213 41.6153 247.154 41.6643 247.047 41.669C246.94 41.6737 246.79 41.676 246.599 41.676C246.174 41.676 245.813 41.718 245.514 41.802C245.215 41.886 244.97 42.012 244.779 42.18C244.588 42.348 244.448 42.5603 244.359 42.817C244.27 43.069 244.226 43.363 244.226 43.699V44H248.552V51H247.18V44.994H244.268V51H242.896ZM251.927 40.668V51H250.555V40.668H251.927ZM258.588 46.653C258.588 46.3823 258.548 46.1327 258.469 45.904C258.394 45.6753 258.282 45.477 258.133 45.309C257.984 45.141 257.802 45.0103 257.587 44.917C257.372 44.8237 257.125 44.777 256.845 44.777C256.271 44.777 255.818 44.9427 255.487 45.274C255.16 45.6053 254.953 46.065 254.864 46.653H258.588ZM259.715 49.985C259.547 50.181 259.353 50.3513 259.134 50.496C258.915 50.636 258.681 50.7503 258.434 50.839C258.187 50.9277 257.93 50.993 257.664 51.035C257.403 51.077 257.144 51.098 256.887 51.098C256.397 51.098 255.942 51.0163 255.522 50.853C255.107 50.685 254.745 50.4423 254.437 50.125C254.134 49.803 253.896 49.4063 253.723 48.935C253.555 48.459 253.471 47.913 253.471 47.297C253.471 46.8023 253.548 46.3427 253.702 45.918C253.856 45.4887 254.075 45.1153 254.36 44.798C254.649 44.4807 255.002 44.231 255.417 44.049C255.832 43.867 256.299 43.776 256.817 43.776C257.251 43.776 257.65 43.8483 258.014 43.993C258.383 44.133 258.7 44.3383 258.966 44.609C259.232 44.8797 259.44 45.2133 259.589 45.61C259.743 46.0067 259.82 46.4593 259.82 46.968C259.82 47.178 259.797 47.3203 259.75 47.395C259.703 47.465 259.617 47.5 259.491 47.5H254.829C254.843 47.9247 254.904 48.2957 255.011 48.613C255.118 48.9257 255.265 49.187 255.452 49.397C255.643 49.607 255.87 49.7633 256.131 49.866C256.392 49.9687 256.684 50.02 257.006 50.02C257.309 50.02 257.571 49.985 257.79 49.915C258.014 49.845 258.205 49.7703 258.364 49.691C258.527 49.607 258.663 49.53 258.77 49.46C258.882 49.39 258.98 49.355 259.064 49.355C259.176 49.355 259.262 49.397 259.323 49.481L259.715 49.985Z" fill="black"/>
<path d="M361.44 42.586C361.393 42.6653 361.344 42.7237 361.293 42.761C361.242 42.7983 361.176 42.817 361.097 42.817C361.013 42.817 360.917 42.7797 360.81 42.705C360.703 42.6257 360.567 42.5393 360.404 42.446C360.245 42.348 360.054 42.2617 359.83 42.187C359.606 42.1077 359.338 42.068 359.025 42.068C358.731 42.068 358.472 42.1077 358.248 42.187C358.029 42.2617 357.844 42.3667 357.695 42.502C357.546 42.6327 357.431 42.789 357.352 42.971C357.277 43.1483 357.24 43.342 357.24 43.552C357.24 43.8227 357.308 44.0467 357.443 44.224C357.583 44.4013 357.765 44.553 357.989 44.679C358.213 44.805 358.467 44.9147 358.752 45.008C359.037 45.1013 359.328 45.1993 359.627 45.302C359.926 45.4 360.217 45.5143 360.502 45.645C360.787 45.7757 361.041 45.9413 361.265 46.142C361.489 46.338 361.669 46.5807 361.804 46.87C361.944 47.1547 362.014 47.5047 362.014 47.92C362.014 48.3633 361.937 48.7787 361.783 49.166C361.634 49.5533 361.414 49.8917 361.125 50.181C360.836 50.4703 360.479 50.699 360.054 50.867C359.634 51.0303 359.156 51.112 358.619 51.112C358.297 51.112 357.984 51.0793 357.681 51.014C357.378 50.9533 357.091 50.867 356.82 50.755C356.549 50.6383 356.295 50.5007 356.057 50.342C355.824 50.1787 355.614 49.9967 355.427 49.796L355.854 49.082C355.896 49.026 355.945 48.9793 356.001 48.942C356.062 48.9047 356.129 48.886 356.204 48.886C356.302 48.886 356.414 48.9373 356.54 49.04C356.671 49.1427 356.829 49.257 357.016 49.383C357.207 49.5043 357.434 49.6163 357.695 49.719C357.961 49.8217 358.283 49.873 358.661 49.873C358.969 49.873 359.244 49.8333 359.487 49.754C359.73 49.67 359.933 49.5533 360.096 49.404C360.264 49.25 360.392 49.0657 360.481 48.851C360.57 48.6363 360.614 48.3983 360.614 48.137C360.614 47.843 360.546 47.6027 360.411 47.416C360.276 47.2293 360.096 47.073 359.872 46.947C359.648 46.821 359.394 46.7137 359.109 46.625C358.824 46.5363 358.533 46.4453 358.234 46.352C357.935 46.254 357.644 46.142 357.359 46.016C357.074 45.89 356.82 45.7267 356.596 45.526C356.372 45.3207 356.192 45.0663 356.057 44.763C355.922 44.455 355.854 44.077 355.854 43.629C355.854 43.2697 355.924 42.922 356.064 42.586C356.204 42.25 356.407 41.9537 356.673 41.697C356.944 41.4357 357.275 41.228 357.667 41.074C358.059 40.9153 358.507 40.836 359.011 40.836C359.576 40.836 360.094 40.927 360.565 41.109C361.041 41.2863 361.454 41.543 361.804 41.879L361.44 42.586ZM369.353 43.888V51H368.534C368.347 51 368.226 50.909 368.17 50.727L368.072 50.013C367.918 50.1763 367.757 50.3257 367.589 50.461C367.421 50.5963 367.241 50.713 367.05 50.811C366.858 50.9043 366.655 50.9767 366.441 51.028C366.226 51.084 365.995 51.112 365.748 51.112C365.356 51.112 365.01 51.0467 364.712 50.916C364.418 50.7853 364.17 50.6033 363.97 50.37C363.769 50.132 363.617 49.8473 363.515 49.516C363.412 49.1847 363.361 48.8183 363.361 48.417V43.888H364.733V48.417C364.733 48.9257 364.849 49.3223 365.083 49.607C365.316 49.887 365.673 50.027 366.154 50.027C366.504 50.027 366.83 49.9453 367.134 49.782C367.437 49.614 367.722 49.3853 367.988 49.096V43.888H369.353ZM372.623 49.25C372.847 49.544 373.089 49.7493 373.351 49.866C373.612 49.9827 373.897 50.041 374.205 50.041C374.839 50.041 375.327 49.8147 375.668 49.362C376.013 48.9093 376.186 48.2257 376.186 47.311C376.186 46.4663 376.034 45.848 375.731 45.456C375.427 45.0593 374.998 44.861 374.443 44.861C374.051 44.861 373.71 44.9497 373.421 45.127C373.136 45.3043 372.87 45.5563 372.623 45.883V49.25ZM372.623 44.868C372.917 44.5413 373.25 44.2777 373.624 44.077C373.997 43.8763 374.422 43.776 374.898 43.776C375.313 43.776 375.686 43.8577 376.018 44.021C376.354 44.1797 376.638 44.4107 376.872 44.714C377.105 45.0127 377.285 45.3767 377.411 45.806C377.537 46.2353 377.6 46.7207 377.6 47.262C377.6 47.836 377.527 48.3587 377.383 48.83C377.243 49.3013 377.04 49.705 376.774 50.041C376.512 50.377 376.193 50.6383 375.815 50.825C375.437 51.007 375.012 51.098 374.541 51.098C374.312 51.098 374.102 51.0747 373.911 51.028C373.719 50.986 373.542 50.923 373.379 50.839C373.22 50.755 373.073 50.6523 372.938 50.531C372.802 50.4097 372.674 50.272 372.553 50.118L372.49 50.713C372.452 50.9043 372.336 51 372.14 51H371.258V40.668H372.623V44.868ZM379.119 51V43.888H379.938C380.129 43.888 380.248 43.979 380.295 44.161L380.393 44.84C380.654 44.5273 380.944 44.273 381.261 44.077C381.583 43.8763 381.959 43.776 382.388 43.776C382.859 43.776 383.242 43.9067 383.536 44.168C383.83 44.4247 384.045 44.7747 384.18 45.218C384.283 44.966 384.416 44.749 384.579 44.567C384.742 44.385 384.924 44.2357 385.125 44.119C385.326 44.0023 385.538 43.916 385.762 43.86C385.991 43.804 386.222 43.776 386.455 43.776C386.833 43.776 387.169 43.8367 387.463 43.958C387.762 44.0747 388.014 44.2473 388.219 44.476C388.424 44.7047 388.581 44.987 388.688 45.323C388.795 45.659 388.849 46.0417 388.849 46.471V51H387.477V46.471C387.477 45.939 387.36 45.5377 387.127 45.267C386.898 44.9963 386.562 44.861 386.119 44.861C385.923 44.861 385.736 44.896 385.559 44.966C385.382 45.0313 385.225 45.1317 385.09 45.267C384.959 45.4023 384.854 45.5703 384.775 45.771C384.7 45.9717 384.663 46.205 384.663 46.471V51H383.291V46.471C383.291 45.9203 383.181 45.5143 382.962 45.253C382.743 44.9917 382.421 44.861 381.996 44.861C381.702 44.861 381.429 44.938 381.177 45.092C380.925 45.246 380.694 45.456 380.484 45.722V51H379.119ZM392.114 43.888V51H390.749V43.888H392.114ZM392.373 41.69C392.373 41.816 392.347 41.9373 392.296 42.054C392.244 42.166 392.174 42.2663 392.086 42.355C392.002 42.439 391.901 42.5067 391.785 42.558C391.668 42.6047 391.547 42.628 391.421 42.628C391.295 42.628 391.176 42.6047 391.064 42.558C390.952 42.5067 390.851 42.439 390.763 42.355C390.679 42.2663 390.611 42.166 390.56 42.054C390.513 41.9373 390.49 41.816 390.49 41.69C390.49 41.5593 390.513 41.438 390.56 41.326C390.611 41.2093 390.679 41.109 390.763 41.025C390.851 40.9363 390.952 40.8687 391.064 40.822C391.176 40.7707 391.295 40.745 391.421 40.745C391.547 40.745 391.668 40.7707 391.785 40.822C391.901 40.8687 392.002 40.9363 392.086 41.025C392.174 41.109 392.244 41.2093 392.296 41.326C392.347 41.438 392.373 41.5593 392.373 41.69ZM396.316 51.112C395.742 51.112 395.299 50.951 394.986 50.629C394.678 50.307 394.524 49.8473 394.524 49.25V44.994H393.698C393.619 44.994 393.551 44.9707 393.495 44.924C393.444 44.8727 393.418 44.798 393.418 44.7V44.147L394.573 43.986L394.881 41.865C394.9 41.7857 394.935 41.725 394.986 41.683C395.042 41.6363 395.112 41.613 395.196 41.613H395.889V44H397.905V44.994H395.889V49.159C395.889 49.439 395.957 49.649 396.092 49.789C396.232 49.9243 396.409 49.992 396.624 49.992C396.75 49.992 396.857 49.9757 396.946 49.943C397.039 49.9103 397.119 49.8753 397.184 49.838C397.249 49.796 397.305 49.7587 397.352 49.726C397.399 49.6933 397.441 49.677 397.478 49.677C397.525 49.677 397.56 49.6887 397.583 49.712C397.611 49.7307 397.639 49.7633 397.667 49.81L398.073 50.468C397.849 50.6733 397.583 50.832 397.275 50.944C396.967 51.056 396.647 51.112 396.316 51.112ZM411.754 45.974C411.754 46.7253 411.633 47.409 411.39 48.025C411.152 48.641 410.814 49.1707 410.375 49.614C409.936 50.0527 409.411 50.3933 408.8 50.636C408.189 50.8787 407.51 51 406.763 51H402.983V40.948H406.763C407.51 40.948 408.189 41.0693 408.8 41.312C409.411 41.5547 409.936 41.8977 410.375 42.341C410.814 42.7797 411.152 43.3093 411.39 43.93C411.633 44.546 411.754 45.2273 411.754 45.974ZM410.228 45.974C410.228 45.3767 410.146 44.8423 409.983 44.371C409.82 43.895 409.586 43.4937 409.283 43.167C408.984 42.8357 408.62 42.5837 408.191 42.411C407.766 42.2383 407.29 42.152 406.763 42.152H404.481V49.796H406.763C407.29 49.796 407.766 49.7097 408.191 49.537C408.62 49.3643 408.984 49.1147 409.283 48.788C409.586 48.4567 409.82 48.0553 409.983 47.584C410.146 47.1127 410.228 46.576 410.228 45.974ZM416.289 43.776C416.811 43.776 417.283 43.8623 417.703 44.035C418.127 44.203 418.487 44.448 418.781 44.77C419.079 45.0873 419.308 45.4723 419.467 45.925C419.625 46.373 419.705 46.877 419.705 47.437C419.705 47.997 419.625 48.5033 419.467 48.956C419.308 49.4087 419.079 49.7937 418.781 50.111C418.487 50.4283 418.127 50.6733 417.703 50.846C417.283 51.014 416.811 51.098 416.289 51.098C415.761 51.098 415.285 51.014 414.861 50.846C414.441 50.6733 414.081 50.4283 413.783 50.111C413.484 49.7937 413.253 49.4087 413.09 48.956C412.931 48.5033 412.852 47.997 412.852 47.437C412.852 46.877 412.931 46.373 413.09 45.925C413.253 45.4723 413.484 45.0873 413.783 44.77C414.081 44.448 414.441 44.203 414.861 44.035C415.285 43.8623 415.761 43.776 416.289 43.776ZM416.289 50.034C416.961 50.034 417.462 49.8077 417.794 49.355C418.125 48.9023 418.291 48.2653 418.291 47.444C418.291 46.6227 418.125 45.9857 417.794 45.533C417.462 45.0757 416.961 44.847 416.289 44.847C415.607 44.847 415.099 45.0757 414.763 45.533C414.431 45.9857 414.266 46.6227 414.266 47.444C414.266 48.2653 414.431 48.9023 414.763 49.355C415.099 49.8077 415.607 50.034 416.289 50.034ZM426.213 45.218C426.171 45.2693 426.129 45.3113 426.087 45.344C426.049 45.372 425.993 45.386 425.919 45.386C425.844 45.386 425.765 45.358 425.681 45.302C425.601 45.2413 425.499 45.1783 425.373 45.113C425.251 45.043 425.102 44.98 424.925 44.924C424.752 44.8633 424.537 44.833 424.281 44.833C423.945 44.833 423.648 44.8937 423.392 45.015C423.135 45.1363 422.92 45.309 422.748 45.533C422.58 45.757 422.451 46.03 422.363 46.352C422.274 46.674 422.23 47.0357 422.23 47.437C422.23 47.8523 422.276 48.2233 422.37 48.55C422.463 48.872 422.596 49.145 422.769 49.369C422.941 49.5883 423.151 49.7563 423.399 49.873C423.646 49.985 423.921 50.041 424.225 50.041C424.519 50.041 424.761 50.006 424.953 49.936C425.144 49.8613 425.303 49.782 425.429 49.698C425.555 49.614 425.66 49.537 425.744 49.467C425.828 49.3923 425.914 49.355 426.003 49.355C426.115 49.355 426.201 49.397 426.262 49.481L426.654 49.985C426.49 50.1857 426.306 50.356 426.101 50.496C425.9 50.636 425.685 50.7503 425.457 50.839C425.228 50.9277 424.988 50.993 424.736 51.035C424.488 51.077 424.236 51.098 423.98 51.098C423.536 51.098 423.121 51.0163 422.734 50.853C422.351 50.6897 422.017 50.4517 421.733 50.139C421.453 49.8263 421.231 49.4437 421.068 48.991C420.904 48.5337 420.823 48.0157 420.823 47.437C420.823 46.9097 420.895 46.422 421.04 45.974C421.189 45.526 421.406 45.141 421.691 44.819C421.98 44.4923 422.335 44.238 422.755 44.056C423.175 43.8693 423.655 43.776 424.197 43.776C424.705 43.776 425.153 43.8577 425.541 44.021C425.928 44.1843 426.273 44.4153 426.577 44.714L426.213 45.218ZM433.843 43.888V51H433.024C432.837 51 432.716 50.909 432.66 50.727L432.562 50.013C432.408 50.1763 432.247 50.3257 432.079 50.461C431.911 50.5963 431.731 50.713 431.54 50.811C431.348 50.9043 431.145 50.9767 430.931 51.028C430.716 51.084 430.485 51.112 430.238 51.112C429.846 51.112 429.5 51.0467 429.202 50.916C428.908 50.7853 428.66 50.6033 428.46 50.37C428.259 50.132 428.107 49.8473 428.005 49.516C427.902 49.1847 427.851 48.8183 427.851 48.417V43.888H429.223V48.417C429.223 48.9257 429.339 49.3223 429.573 49.607C429.806 49.887 430.163 50.027 430.644 50.027C430.994 50.027 431.32 49.9453 431.624 49.782C431.927 49.614 432.212 49.3853 432.478 49.096V43.888H433.843ZM435.748 51V43.888H436.567C436.758 43.888 436.877 43.979 436.924 44.161L437.022 44.84C437.283 44.5273 437.573 44.273 437.89 44.077C438.212 43.8763 438.588 43.776 439.017 43.776C439.488 43.776 439.871 43.9067 440.165 44.168C440.459 44.4247 440.674 44.7747 440.809 45.218C440.912 44.966 441.045 44.749 441.208 44.567C441.371 44.385 441.553 44.2357 441.754 44.119C441.955 44.0023 442.167 43.916 442.391 43.86C442.62 43.804 442.851 43.776 443.084 43.776C443.462 43.776 443.798 43.8367 444.092 43.958C444.391 44.0747 444.643 44.2473 444.848 44.476C445.053 44.7047 445.21 44.987 445.317 45.323C445.424 45.659 445.478 46.0417 445.478 46.471V51H444.106V46.471C444.106 45.939 443.989 45.5377 443.756 45.267C443.527 44.9963 443.191 44.861 442.748 44.861C442.552 44.861 442.365 44.896 442.188 44.966C442.011 45.0313 441.854 45.1317 441.719 45.267C441.588 45.4023 441.483 45.5703 441.404 45.771C441.329 45.9717 441.292 46.205 441.292 46.471V51H439.92V46.471C439.92 45.9203 439.81 45.5143 439.591 45.253C439.372 44.9917 439.05 44.861 438.625 44.861C438.331 44.861 438.058 44.938 437.806 45.092C437.554 45.246 437.323 45.456 437.113 45.722V51H435.748ZM452.025 46.653C452.025 46.3823 451.986 46.1327 451.906 45.904C451.832 45.6753 451.72 45.477 451.57 45.309C451.421 45.141 451.239 45.0103 451.024 44.917C450.81 44.8237 450.562 44.777 450.282 44.777C449.708 44.777 449.256 44.9427 448.924 45.274C448.598 45.6053 448.39 46.065 448.301 46.653H452.025ZM453.152 49.985C452.984 50.181 452.791 50.3513 452.571 50.496C452.352 50.636 452.119 50.7503 451.871 50.839C451.624 50.9277 451.367 50.993 451.101 51.035C450.84 51.077 450.581 51.098 450.324 51.098C449.834 51.098 449.379 51.0163 448.959 50.853C448.544 50.685 448.182 50.4423 447.874 50.125C447.571 49.803 447.333 49.4063 447.16 48.935C446.992 48.459 446.908 47.913 446.908 47.297C446.908 46.8023 446.985 46.3427 447.139 45.918C447.293 45.4887 447.513 45.1153 447.797 44.798C448.087 44.4807 448.439 44.231 448.854 44.049C449.27 43.867 449.736 43.776 450.254 43.776C450.688 43.776 451.087 43.8483 451.451 43.993C451.82 44.133 452.137 44.3383 452.403 44.609C452.669 44.8797 452.877 45.2133 453.026 45.61C453.18 46.0067 453.257 46.4593 453.257 46.968C453.257 47.178 453.234 47.3203 453.187 47.395C453.141 47.465 453.054 47.5 452.928 47.5H448.266C448.28 47.9247 448.341 48.2957 448.448 48.613C448.556 48.9257 448.703 49.187 448.889 49.397C449.081 49.607 449.307 49.7633 449.568 49.866C449.83 49.9687 450.121 50.02 450.443 50.02C450.747 50.02 451.008 49.985 451.227 49.915C451.451 49.845 451.643 49.7703 451.801 49.691C451.965 49.607 452.1 49.53 452.207 49.46C452.319 49.39 452.417 49.355 452.501 49.355C452.613 49.355 452.7 49.397 452.76 49.481L453.152 49.985ZM456.006 44.875C456.16 44.7117 456.321 44.5623 456.489 44.427C456.657 44.2917 456.834 44.1773 457.021 44.084C457.212 43.986 457.415 43.9113 457.63 43.86C457.849 43.804 458.082 43.776 458.33 43.776C458.722 43.776 459.065 43.8413 459.359 43.972C459.657 44.1027 459.907 44.287 460.108 44.525C460.308 44.7583 460.46 45.0407 460.563 45.372C460.665 45.7033 460.717 46.0697 460.717 46.471V51H459.345V46.471C459.345 45.9623 459.228 45.568 458.995 45.288C458.761 45.0033 458.404 44.861 457.924 44.861C457.574 44.861 457.245 44.945 456.937 45.113C456.633 45.2763 456.351 45.5003 456.09 45.785V51H454.725V43.888H455.544C455.735 43.888 455.854 43.979 455.901 44.161L456.006 44.875ZM464.689 51.112C464.115 51.112 463.672 50.951 463.359 50.629C463.051 50.307 462.897 49.8473 462.897 49.25V44.994H462.071C461.992 44.994 461.924 44.9707 461.868 44.924C461.817 44.8727 461.791 44.798 461.791 44.7V44.147L462.946 43.986L463.254 41.865C463.273 41.7857 463.308 41.725 463.359 41.683C463.415 41.6363 463.485 41.613 463.569 41.613H464.262V44H466.278V44.994H464.262V49.159C464.262 49.439 464.33 49.649 464.465 49.789C464.605 49.9243 464.782 49.992 464.997 49.992C465.123 49.992 465.23 49.9757 465.319 49.943C465.412 49.9103 465.492 49.8753 465.557 49.838C465.622 49.796 465.678 49.7587 465.725 49.726C465.772 49.6933 465.814 49.677 465.851 49.677C465.898 49.677 465.933 49.6887 465.956 49.712C465.984 49.7307 466.012 49.7633 466.04 49.81L466.446 50.468C466.222 50.6733 465.956 50.832 465.648 50.944C465.34 51.056 465.02 51.112 464.689 51.112ZM471.728 45.113C471.691 45.1737 471.651 45.218 471.609 45.246C471.567 45.2693 471.514 45.281 471.448 45.281C471.374 45.281 471.29 45.2553 471.196 45.204C471.108 45.1527 470.998 45.0967 470.867 45.036C470.741 44.9753 470.592 44.9193 470.419 44.868C470.247 44.8167 470.041 44.791 469.803 44.791C469.607 44.791 469.428 44.8167 469.264 44.868C469.106 44.9147 468.97 44.9823 468.858 45.071C468.746 45.155 468.66 45.2577 468.599 45.379C468.539 45.4957 468.508 45.6217 468.508 45.757C468.508 45.9343 468.56 46.0813 468.662 46.198C468.77 46.3147 468.907 46.415 469.075 46.499C469.248 46.583 469.442 46.66 469.656 46.73C469.876 46.7953 470.097 46.8653 470.321 46.94C470.55 47.0147 470.772 47.101 470.986 47.199C471.206 47.2923 471.399 47.4113 471.567 47.556C471.74 47.696 471.878 47.8663 471.98 48.067C472.088 48.2677 472.141 48.5127 472.141 48.802C472.141 49.1333 472.081 49.4413 471.959 49.726C471.843 50.006 471.668 50.2487 471.434 50.454C471.206 50.6593 470.921 50.8203 470.58 50.937C470.24 51.0537 469.85 51.112 469.411 51.112C468.921 51.112 468.469 51.0303 468.053 50.867C467.638 50.7037 467.29 50.496 467.01 50.244L467.332 49.719C467.37 49.6537 467.416 49.6047 467.472 49.572C467.528 49.5347 467.603 49.516 467.696 49.516C467.785 49.516 467.876 49.5487 467.969 49.614C468.063 49.6793 468.175 49.7517 468.305 49.831C468.436 49.9057 468.595 49.9757 468.781 50.041C468.968 50.1017 469.201 50.132 469.481 50.132C469.715 50.132 469.918 50.104 470.09 50.048C470.263 49.9873 470.405 49.908 470.517 49.81C470.634 49.7073 470.72 49.5907 470.776 49.46C470.832 49.3293 470.86 49.1917 470.86 49.047C470.86 48.8603 470.807 48.7063 470.699 48.585C470.597 48.459 470.459 48.3517 470.286 48.263C470.118 48.1743 469.925 48.0973 469.705 48.032C469.486 47.9667 469.262 47.8967 469.033 47.822C468.805 47.7473 468.581 47.661 468.361 47.563C468.142 47.465 467.946 47.3413 467.773 47.192C467.605 47.0427 467.468 46.8607 467.36 46.646C467.258 46.4313 467.206 46.17 467.206 45.862C467.206 45.5867 467.262 45.323 467.374 45.071C467.491 44.819 467.657 44.5973 467.871 44.406C468.091 44.2147 468.359 44.063 468.676 43.951C468.998 43.8343 469.365 43.776 469.775 43.776C470.247 43.776 470.671 43.8507 471.049 44C471.432 44.1493 471.759 44.3547 472.029 44.616L471.728 45.113Z" fill="black"/>
</svg>
