<?xml version="1.0" encoding="utf-8"?>
<!-- Generator: Adobe Illustrator 14.0.0, SVG Export Plug-In  -->
<!DOCTYPE svg PUBLIC "-//W3C//DTD SVG 1.1//EN" "http://www.w3.org/Graphics/SVG/1.1/DTD/svg11.dtd" [
	<!ENTITY ns_flows "http://ns.adobe.com/Flows/1.0/">
]>
<svg version="1.1"
	 xmlns="http://www.w3.org/2000/svg" xmlns:xlink="http://www.w3.org/1999/xlink" xmlns:a="http://ns.adobe.com/AdobeSVGViewerExtensions/3.0/"
	 x="0px" y="0px" width="800px" height="153px" viewBox="0 0 800 153" enable-background="new 0 0 800 153" xml:space="preserve">
<defs>
</defs>
<path fill="#FBD700" d="M570.6,3.5l-40,57.6l24.6,10.2c4.4-13,12.9-25.6,23.5-31.5L570.6,3.5z"/>
<path fill="#F7BA00" d="M540.8,108.4l13.5-5.6c-1.5-4.2-2.3-8.7-2.3-13.4c0-4.1,0.6-8.5,1.7-12.9l-24.5-10.2l0,46.9L540.8,108.4z"/>
<path fill="#F79D00" d="M556.4,107.7l-25.1,10.4l33.1,33.2l10.5-25.4C566.9,122.1,560.4,115.7,556.4,107.7"/>
<path fill="#FBD700" d="M615.2,3.5l40,57.6l-24.6,10.2c-4.4-13-12.9-25.6-23.5-31.5L615.2,3.5z"/>
<path fill="#FBEC00" d="M575.2,0l8.5,37.8c0,0,4.7-1.3,9.2-1.3c4.4,0,9.2,1.3,9.2,1.3L610.6,0H575.2z"/>
<path fill="#F7BA00" d="M645,108.4l-13.5-5.6c1.5-4.2,2.3-8.7,2.3-13.4c0-4.1-0.6-8.5-1.7-12.9l24.5-10.2l0,46.9L645,108.4z"/>
<path fill="#326FBB" d="M605.9,127.8c0,0-5.3,1.7-13,1.7c-7.7,0-13-1.7-13-1.7l-10.5,25.5h47.1L605.9,127.8z"/>
<path fill="#F79D00" d="M629.4,107.7l25.1,10.4l-33.1,33.2l-10.5-25.4C618.9,122.1,625.4,115.7,629.4,107.7"/>
<polygon fill="#4D4D4D" points="20.3,127.5 0,127.5 0,38.5 20.3,38.5 20.3,74 49,74 49,38.5 69.3,38.5 69.3,127.5 49,127.5 49,91.8 
	20.3,91.8 "/>
<path fill="#4D4D4D" d="M167.8,127.5h-21.8l-6.6-17.8h-33.9l-6.6,17.8H77.1L113,38.5h18.8L167.8,127.5z M122.5,66h-0.2l-9.9,25.9
	h20.1L122.5,66z"/>
<polygon fill="#4D4D4D" points="160.4,38.5 223,38.5 223,56.3 201.9,56.3 201.9,127.5 181.6,127.5 181.6,56.3 160.4,56.3 "/>
<path fill="#4D4D4D" d="M291.8,103.7l8.6,17.3c0,0-9.9,8.2-29.3,8.2c-25.2,0-48.3-20.5-48.3-46c0-25.6,23-46.3,48.3-46.3
	c19.3,0,29.3,8.2,29.3,8.2l-8.6,17.3c0,0-7.1-5.5-17.5-5.5c-20.4,0-29.4,14.2-29.4,26.1c0,12,9,26.2,29.4,26.2
	C284.7,109.2,291.8,103.7,291.8,103.7"/>
<polygon fill="#4D4D4D" points="328.2,127.5 307.9,127.5 307.9,38.5 328.2,38.5 328.2,74 357,74 357,38.5 377.2,38.5 377.2,127.5 
	357,127.5 357,91.8 328.2,91.8 "/>
<path fill="#4D4D4D" d="M449.4,45.3l-8.2,16.2c0,0-8.9-6.2-18-6.2c-6.9,0-10.6,3.1-10.6,8c0,5,8.4,8.5,18.6,12.8
	c9.9,4.2,20.8,12.6,20.8,24.3c0,21.3-16.2,28.7-33.6,28.7c-20.8,0-33.5-11.8-33.5-11.8l10.1-17.1c0,0,11.9,10,21.8,10
	c4.4,0,12.8-0.4,12.8-8.7c0-6.5-9.5-9.4-20.1-14.7C399,81.6,392.8,73.3,392.8,64c0-16.6,14.7-27.2,29-27.2
	C438,36.8,449.4,45.3,449.4,45.3"/>
<polygon fill="#4D4D4D" points="458.7,38.5 521.3,38.5 521.3,56.3 500.1,56.3 500.1,127.5 479.8,127.5 479.8,56.3 458.7,56.3 "/>
<polygon fill="#4D4D4D" points="685.4,127.5 665.1,127.5 665.1,38.5 685.4,38.5 720.8,93.7 721,93.7 721,38.5 741.3,38.5 
	741.3,127.5 721,127.5 685.6,72.3 685.4,72.3 "/>
<polygon fill="#4D4D4D" points="800.1,56.3 769.4,56.3 769.4,74 798.8,74 798.8,91.8 769.4,91.8 769.4,109.7 800.1,109.7 
	800.1,127.5 749.1,127.5 749.1,38.5 800.1,38.5 "/>
</svg>
