<?xml version="1.0" encoding="utf-8"?>
<!-- Generator: Adobe Illustrator 14.0.0, SVG Export Plug-In  -->
<!DOCTYPE svg PUBLIC "-//W3C//DTD SVG 1.1//EN" "http://www.w3.org/Graphics/SVG/1.1/DTD/svg11.dtd" [
	<!ENTITY ns_flows "http://ns.adobe.com/Flows/1.0/">
]>
<svg version="1.1"
	 xmlns="http://www.w3.org/2000/svg" xmlns:xlink="http://www.w3.org/1999/xlink" xmlns:a="http://ns.adobe.com/AdobeSVGViewerExtensions/3.0/"
	 x="0px" y="0px" width="55px" height="66px" viewBox="0 0 55 66" enable-background="new 0 0 55 66" xml:space="preserve">
<defs>
</defs>
<path fill="#FBD700" d="M17.742,1.516L0.598,26.198l10.546,4.383c1.886-5.569,5.554-10.962,10.083-13.503L17.742,1.516z"/>
<path fill="#F7BA00" d="M4.953,46.459l5.785-2.4c-0.627-1.797-0.97-3.737-0.97-5.757c0-1.749,0.255-3.625,0.732-5.523L0,28.418
	l0.015,20.085L4.953,46.459z"/>
<path fill="#F79D00" d="M11.626,46.158L0.889,50.606l14.193,14.216l4.49-10.886C16.148,52.322,13.346,49.57,11.626,46.158"/>
<path fill="#FBD700" d="M36.827,1.516l17.144,24.683l-10.548,4.383c-1.888-5.569-5.551-10.962-10.081-13.503L36.827,1.516z"/>
<path fill="#FBEC00" d="M19.708,0l3.639,16.184c0,0,2.032-0.564,3.937-0.564c1.906,0,3.939,0.564,3.939,0.564L34.862,0H19.708z"/>
<path fill="#F7BA00" d="M49.617,46.459l-5.782-2.4c0.624-1.797,0.968-3.737,0.968-5.757c0-1.749-0.255-3.625-0.732-5.523l10.5-4.362
	l-0.017,20.085L49.617,46.459z"/>
<path fill="#326FBB" d="M32.876,54.763c0,0-2.283,0.746-5.592,0.746c-3.31,0-5.591-0.746-5.591-0.746l-4.508,10.919h20.204
	L32.876,54.763z"/>
<path fill="#F79D00" d="M42.942,46.158l10.742,4.448L39.49,64.823L35,53.937C38.422,52.322,41.221,49.57,42.942,46.158"/>
</svg>
